<?xml version="1.0" encoding="UTF-8"?>
<svg width="32px" height="32px" viewBox="0 0 32 32" version="1.1" xmlns="http://www.w3.org/2000/svg" xmlns:xlink="http://www.w3.org/1999/xlink">
    <!-- Generator: Sketch 57.1 (83088) - https://sketch.com -->
    <title>icon_report_connected copy</title>
    <desc>Created with Sketch.</desc>
    <g id="Page-1" stroke="none" stroke-width="1" fill="none" fill-rule="evenodd">
        <g id="시안-2차(수정)-copy-5" transform="translate(-466.000000, -563.000000)" fill="#AAAFB6" fill-rule="nonzero">
            <g id="Robot-information" transform="translate(120.000000, 292.000000)">
                <g id="rState" transform="translate(316.000000, 0.000000)">
                    <g id="item7" transform="translate(30.000000, 271.000000)">
                        <g id="icon_report_connected">
                            <path d="M28,8 C28.5522847,8 29,8.44771525 29,9 L29,24 C29,24.5522847 28.5522847,25 28,25 L4,25 C3.44771525,25 3,24.5522847 3,24 L3,9 C3,8.44771525 3.44771525,8 4,8 L28,8 Z M27,10 L5,10 L5,23 L27,23 L27,10 Z M16.5,19 C16.7761424,19 17,19.2238576 17,19.5 C17,19.7761424 16.7761424,20 16.5,20 L14.5,20 C14.2238576,20 14,19.7761424 14,19.5 C14,19.2238576 14.2238576,19 14.5,19 L16.5,19 Z M20.5,19 C20.7761424,19 21,19.2238576 21,19.5 C21,19.7761424 20.7761424,20 20.5,20 L18.5,20 C18.2238576,20 18,19.7761424 18,19.5 C18,19.2238576 18.2238576,19 18.5,19 L20.5,19 Z M24.5,19 C24.7761424,19 25,19.2238576 25,19.5 C25,19.7761424 24.7761424,20 24.5,20 L22.5,20 C22.2238576,20 22,19.7761424 22,19.5 C22,19.2238576 22.2238576,19 22.5,19 L24.5,19 Z M9.5,14 C10.8807119,14 12,15.1192881 12,16.5 C12,17.8807119 10.8807119,19 9.5,19 C8.11928813,19 7,17.8807119 7,16.5 C7,15.1192881 8.11928813,14 9.5,14 Z M16.5,17 C16.7761424,17 17,17.2238576 17,17.5 C17,17.7761424 16.7761424,18 16.5,18 L14.5,18 C14.2238576,18 14,17.7761424 14,17.5 C14,17.2238576 14.2238576,17 14.5,17 L16.5,17 Z M20.5,17 C20.7761424,17 21,17.2238576 21,17.5 C21,17.7761424 20.7761424,18 20.5,18 L18.5,18 C18.2238576,18 18,17.7761424 18,17.5 C18,17.2238576 18.2238576,17 18.5,17 L20.5,17 Z M24.5,17 C24.7761424,17 25,17.2238576 25,17.5 C25,17.7761424 24.7761424,18 24.5,18 L22.5,18 C22.2238576,18 22,17.7761424 22,17.5 C22,17.2238576 22.2238576,17 22.5,17 L24.5,17 Z M16.5,15 C16.7761424,15 17,15.2238576 17,15.5 C17,15.7761424 16.7761424,16 16.5,16 L14.5,16 C14.2238576,16 14,15.7761424 14,15.5 C14,15.2238576 14.2238576,15 14.5,15 L16.5,15 Z M20.5,15 C20.7761424,15 21,15.2238576 21,15.5 C21,15.7761424 20.7761424,16 20.5,16 L18.5,16 C18.2238576,16 18,15.7761424 18,15.5 C18,15.2238576 18.2238576,15 18.5,15 L20.5,15 Z M24.5,15 C24.7761424,15 25,15.2238576 25,15.5 C25,15.7761424 24.7761424,16 24.5,16 L22.5,16 C22.2238576,16 22,15.7761424 22,15.5 C22,15.2238576 22.2238576,15 22.5,15 L24.5,15 Z M16.5,13 C16.7761424,13 17,13.2238576 17,13.5 C17,13.7761424 16.7761424,14 16.5,14 L14.5,14 C14.2238576,14 14,13.7761424 14,13.5 C14,13.2238576 14.2238576,13 14.5,13 L16.5,13 Z M20.5,13 C20.7761424,13 21,13.2238576 21,13.5 C21,13.7761424 20.7761424,14 20.5,14 L18.5,14 C18.2238576,14 18,13.7761424 18,13.5 C18,13.2238576 18.2238576,13 18.5,13 L20.5,13 Z M24.5,13 C24.7761424,13 25,13.2238576 25,13.5 C25,13.7761424 24.7761424,14 24.5,14 L22.5,14 C22.2238576,14 22,13.7761424 22,13.5 C22,13.2238576 22.2238576,13 22.5,13 L24.5,13 Z" id="inactive"></path>
                        </g>
                    </g>
                </g>
            </g>
        </g>
    </g>
</svg>