<?xml version="1.0" encoding="UTF-8"?>
<svg width="32px" height="32px" viewBox="0 0 32 32" version="1.1" xmlns="http://www.w3.org/2000/svg" xmlns:xlink="http://www.w3.org/1999/xlink">
    <!-- Generator: Sketch 57.1 (83088) - https://sketch.com -->
    <title>icon_error copy 2</title>
    <desc>Created with Sketch.</desc>
    <g id="Page-1" stroke="none" stroke-width="1" fill="none" fill-rule="evenodd">
        <g id="시안-2차(수정)-copy-5" transform="translate(-466.000000, -458.000000)" fill="#E65252">
            <g id="Robot-information" transform="translate(120.000000, 292.000000)">
                <g id="rState" transform="translate(316.000000, 0.000000)">
                    <g id="item4" transform="translate(30.000000, 166.000000)">
                        <g id="icon_error">
                            <path d="M16.8944272,4.68328157 C17.281482,4.87680898 17.595327,5.19065396 17.7888544,5.57770876 L27.5527864,25.1055728 C28.0467649,26.0935298 27.6463162,27.2948759 26.6583592,27.7888544 C26.3806483,27.9277098 26.0744222,28 25.763932,28 L6.23606798,28 C5.13149848,28 4.23606798,27.1045695 4.23606798,26 C4.23606798,25.6895098 4.30835816,25.3832837 4.4472136,25.1055728 L14.2111456,5.57770876 C14.7051241,4.58975177 15.9064702,4.18930308 16.8944272,4.68328157 Z M16,6.47213595 L6.23606798,26 L25.763932,26 L16,6.47213595 Z M16,22 C16.5522847,22 17,22.4477153 17,23 C17,23.5522847 16.5522847,24 16,24 C15.4477153,24 15,23.5522847 15,23 C15,22.4477153 15.4477153,22 16,22 Z M16,13 C16.5522847,13 17,13.4477153 17,14 L17,20 C17,20.5522847 16.5522847,21 16,21 C15.4477153,21 15,20.5522847 15,20 L15,14 C15,13.4477153 15.4477153,13 16,13 Z" id="active"></path>
                        </g>
                    </g>
                </g>
            </g>
        </g>
    </g>
</svg>