<?xml version="1.0" encoding="UTF-8"?>
<svg width="32px" height="32px" viewBox="0 0 32 32" version="1.1" xmlns="http://www.w3.org/2000/svg" xmlns:xlink="http://www.w3.org/1999/xlink">
    <!-- Generator: Sketch 57.1 (83088) - https://sketch.com -->
    <title>icon_server_connected copy</title>
    <desc>Created with Sketch.</desc>
    <g id="Page-1" stroke="none" stroke-width="1" fill="none" fill-rule="evenodd">
        <g id="시안-2차(수정)-copy-5" transform="translate(-466.000000, -598.000000)" fill-rule="nonzero">
            <g id="Robot-information" transform="translate(120.000000, 292.000000)">
                <g id="rState" transform="translate(316.000000, 0.000000)">
                    <g id="item8" transform="translate(30.000000, 306.000000)">
                        <g id="icon_server_connercted">
                            <path d="M4,21 C3.44771525,21 3,20.5522847 3,20 L3,6 C3,5.44771525 3.44771525,5 4,5 L28,5 C28.5522847,5 29,5.44771525 29,6 L29,20 C29,20.5522847 28.5522847,21 28,21 L17,21 L17.0015587,23.268467 C17.3044703,23.4440566 17.5570567,23.6968514 17.7323937,23.9999275 L29,24 L29,26 L17.7318119,26.0010775 C17.3858493,26.5982846 16.7398375,27 16,27 C15.2601625,27 14.6141507,26.5982846 14.2681881,26.0010775 L3,26 L3,24 L14.2676063,23.9999275 C14.4431375,23.6965158 14.6960892,23.4434967 14.9994478,23.2678839 L15,21 L4,21 Z M27,14 L5,14 L5,19 L27,19 L27,14 Z M24.5,17 C24.7761424,17 25,17.2238576 25,17.5 C25,17.7761424 24.7761424,18 24.5,18 L7.5,18 C7.22385763,18 7,17.7761424 7,17.5 C7,17.2238576 7.22385763,17 7.5,17 L24.5,17 Z M9.5,15 C9.77614237,15 10,15.2238576 10,15.5 C10,15.7761424 9.77614237,16 9.5,16 L7.5,16 C7.22385763,16 7,15.7761424 7,15.5 C7,15.2238576 7.22385763,15 7.5,15 L9.5,15 Z M27,7 L5,7 L5,12 L27,12 L27,7 Z M24.5,10 C24.7761424,10 25,10.2238576 25,10.5 C25,10.7761424 24.7761424,11 24.5,11 L7.5,11 C7.22385763,11 7,10.7761424 7,10.5 C7,10.2238576 7.22385763,10 7.5,10 L24.5,10 Z M9.5,8 C9.77614237,8 10,8.22385763 10,8.5 C10,8.77614237 9.77614237,9 9.5,9 L7.5,9 C7.22385763,9 7,8.77614237 7,8.5 C7,8.22385763 7.22385763,8 7.5,8 L9.5,8 Z" id="inactive" fill="#AAAFB6"></path>
                            <path d="M4,21 C3.44771525,21 3,20.5522847 3,20 L3,6 C3,5.44771525 3.44771525,5 4,5 L28,5 C28.5522847,5 29,5.44771525 29,6 L29,20 C29,20.5522847 28.5522847,21 28,21 L17,21 L17.0015587,23.268467 C17.3044703,23.4440566 17.5570567,23.6968514 17.7323937,23.9999275 L29,24 L29,26 L17.7318119,26.0010775 C17.3858493,26.5982846 16.7398375,27 16,27 C15.2601625,27 14.6141507,26.5982846 14.2681881,26.0010775 L3,26 L3,24 L14.2676063,23.9999275 C14.4431375,23.6965158 14.6960892,23.4434967 14.9994478,23.2678839 L15,21 L4,21 Z M27,14 L5,14 L5,19 L27,19 L27,14 Z M24.5,17 C24.7761424,17 25,17.2238576 25,17.5 C25,17.7761424 24.7761424,18 24.5,18 L7.5,18 C7.22385763,18 7,17.7761424 7,17.5 C7,17.2238576 7.22385763,17 7.5,17 L24.5,17 Z M9.5,15 C9.77614237,15 10,15.2238576 10,15.5 C10,15.7761424 9.77614237,16 9.5,16 L7.5,16 C7.22385763,16 7,15.7761424 7,15.5 C7,15.2238576 7.22385763,15 7.5,15 L9.5,15 Z M27,7 L5,7 L5,12 L27,12 L27,7 Z M24.5,10 C24.7761424,10 25,10.2238576 25,10.5 C25,10.7761424 24.7761424,11 24.5,11 L7.5,11 C7.22385763,11 7,10.7761424 7,10.5 C7,10.2238576 7.22385763,10 7.5,10 L24.5,10 Z M9.5,8 C9.77614237,8 10,8.22385763 10,8.5 C10,8.77614237 9.77614237,9 9.5,9 L7.5,9 C7.22385763,9 7,8.77614237 7,8.5 C7,8.22385763 7.22385763,8 7.5,8 L9.5,8 Z" id="active" fill="#6849D6"></path>
                        </g>
                    </g>
                </g>
            </g>
        </g>
    </g>
</svg>