<?xml version="1.0" encoding="UTF-8"?>
<svg width="24px" height="24px" viewBox="0 0 24 24" version="1.1" xmlns="http://www.w3.org/2000/svg" xmlns:xlink="http://www.w3.org/1999/xlink">
    <!-- Generator: Sketch 57.1 (83088) - https://sketch.com -->
    <title>icon_server_customer</title>
    <desc>Created with Sketch.</desc>
    <g id="Page-1" stroke="none" stroke-width="1" fill="none" fill-rule="evenodd">
        <g id="시안-2차(수정)" transform="translate(-254.000000, -576.000000)">
            <g id="Robot-information" transform="translate(120.000000, 292.000000)">
                <g id="Product_img">
                    <g id="button_customer" transform="translate(124.000000, 282.000000)">
                        <rect id="Rectangle" stroke="#0072CE" x="0.5" y="0.5" width="123" height="27" rx="13.5"></rect>
                        <path d="M20.2758621,13.7 C20.3932453,13.7 20.5089162,13.7073316 20.6224418,13.7215617 C20.0268096,14.4045884 19.6478604,15.2861121 19.5930849,16.255804 L19.5862069,16.5 L19.586,20 L12,20 L12,16.4586207 C12,14.9350766 13.2350766,13.7 14.7586207,13.7 L20.2758621,13.7 Z M29.2413793,13.7 C30.7649234,13.7 32,14.9350766 32,16.4586207 L32,20 L20.9655172,20 L20.9655172,16.4586207 C20.9655172,14.9350766 22.2005938,13.7 23.7241379,13.7 L29.2413793,13.7 Z M17.5172414,6 C19.0407855,6 20.2758621,7.2536027 20.2758621,8.8 C20.2758621,10.3463973 19.0407855,11.6 17.5172414,11.6 C15.9936972,11.6 14.7586207,10.3463973 14.7586207,8.8 C14.7586207,7.2536027 15.9936972,6 17.5172414,6 Z M26.4827586,6 C28.0063028,6 29.2413793,7.2536027 29.2413793,8.8 C29.2413793,10.3463973 28.0063028,11.6 26.4827586,11.6 C24.9592145,11.6 23.7241379,10.3463973 23.7241379,8.8 C23.7241379,7.2536027 24.9592145,6 26.4827586,6 Z" id="icon_-customer" fill="#047BF8"></path>
                    </g>
                </g>
            </g>
        </g>
    </g>
</svg>