<?xml version="1.0" encoding="UTF-8"?>
<svg width="32px" height="33px" viewBox="0 0 32 33" version="1.1" xmlns="http://www.w3.org/2000/svg" xmlns:xlink="http://www.w3.org/1999/xlink">
    <!-- Generator: Sketch 57.1 (83088) - https://sketch.com -->
    <title>icon_ready copy 2</title>
    <desc>Created with Sketch.</desc>
    <g id="Page-1" stroke="none" stroke-width="1" fill="none" fill-rule="evenodd">
        <g id="시안-2차(수정)-copy-5" transform="translate(-466.000000, -387.000000)" fill="#24B314" fill-rule="nonzero">
            <g id="Robot-information" transform="translate(120.000000, 292.000000)">
                <g id="rState" transform="translate(316.000000, 0.000000)">
                    <g id="item2" transform="translate(30.000000, 96.000000)">
                        <g id="icon_ready">
                            <path d="M18.6271533,26.7207046 C18.7135496,27.2661898 18.3413846,27.7784311 17.7958994,27.8648274 C17.2504142,27.9512238 16.738173,27.5790588 16.6517766,27.0335736 C16.5653802,26.4880883 16.9375453,25.9758471 17.4830305,25.8894507 C18.0285157,25.8030544 18.5407569,26.1752194 18.6271533,26.7207046 Z M14.4007318,25.8778521 L14.5169695,25.8894507 C15.0624547,25.9758471 15.4346198,26.4880883 15.3482234,27.0335736 C15.261827,27.5790588 14.7495858,27.9512238 14.2041006,27.8648274 C13.6586154,27.7784311 13.2864504,27.2661898 13.3728467,26.7207046 C13.4469008,26.2531459 13.8338204,25.9129244 14.2863701,25.8796673 L14.4007318,25.8778521 Z M21.6715152,25.4722864 C21.9136209,25.9686766 21.7074825,26.5673459 21.2110923,26.8094516 C20.714702,27.0515573 20.1160328,26.8454189 19.8739271,26.3490287 C19.6318214,25.8526384 19.8379597,25.2539692 20.33435,25.0118635 C20.8307402,24.7697578 21.4294095,24.9758962 21.6715152,25.4722864 Z M11.66565,25.0118635 C12.1620403,25.2539692 12.3681786,25.8526384 12.1260729,26.3490287 C11.8839672,26.8454189 11.285298,27.0515573 10.7889077,26.8094516 C10.2925175,26.5673459 10.0863791,25.9686766 10.3284848,25.4722864 C10.5705905,24.9758962 11.1692598,24.7697578 11.66565,25.0118635 Z M24.2132538,23.3815722 C24.5899111,23.7854877 24.567814,24.418267 24.1638985,24.7949243 C23.759983,25.1715816 23.1272037,25.1494844 22.7505464,24.745569 C22.3738891,24.3416535 22.3959863,23.7088742 22.7999018,23.3322169 C23.2038173,22.9555596 23.8365965,22.9776567 24.2132538,23.3815722 Z M9.20009824,23.3322169 C9.60401374,23.7088742 9.62611088,24.3416535 9.24945359,24.745569 C8.87279629,25.1494844 8.24001702,25.1715816 7.83610152,24.7949243 C7.43218603,24.418267 7.41008889,23.7854877 7.78674618,23.3815722 C8.16340348,22.9776567 8.79618275,22.9555596 9.20009824,23.3322169 Z M26.0262794,20.6339746 C26.5045721,20.910117 26.6684472,21.5217074 26.3923048,22 C26.1161625,22.4782926 25.5045721,22.6421678 25.0262794,22.3660254 C24.5479868,22.089883 24.3841117,21.4782926 24.660254,21 C24.9363964,20.5217074 25.5479868,20.3578322 26.0262794,20.6339746 Z M7.33974596,21 C7.61588834,21.4782926 7.45201318,22.089883 6.97372056,22.3660254 C6.49542793,22.6421678 5.88383753,22.4782926 5.60769515,22 C5.33155278,21.5217074 5.49542793,20.910117 5.97372056,20.6339746 C6.45201318,20.3578322 7.06360359,20.5217074 7.33974596,21 Z M24.6936252,7.86357248 L26.3062392,9.36006033 L14.9043042,21.646776 L10.6304187,16.7208838 L12.2921365,15.2791162 L14.9593456,18.353224 L24.6936252,7.86357248 Z M26.9491581,17.4733602 C27.4872878,17.5975972 27.8228141,18.1345516 27.6985771,18.6726813 C27.5743401,19.2108111 27.0373857,19.5463374 26.499256,19.4221003 C25.9611263,19.2978633 25.6255999,18.7609089 25.749837,18.2227792 C25.874074,17.6846495 26.4110284,17.3491232 26.9491581,17.4733602 Z M6.25016303,18.2227792 C6.37440007,18.7609089 6.03887375,19.2978633 5.50074402,19.4221003 C4.96261429,19.5463374 4.42565994,19.2108111 4.3014229,18.6726813 C4.17718586,18.1345516 4.51271218,17.5975972 5.05084191,17.4733602 C5.58897164,17.3491232 6.12592599,17.6846495 6.25016303,18.2227792 Z M27.9668058,15.1082125 C28.0053313,15.6591519 27.5899377,16.1370076 27.0389982,16.175533 C26.4880588,16.2140585 26.0102032,15.7986649 25.9716777,15.2477254 C25.9331523,14.696786 26.3485459,14.2189304 26.8994853,14.1804049 C27.4504247,14.1418795 27.9282804,14.5572731 27.9668058,15.1082125 Z M4.98370836,14.1789812 L5.1005147,14.1804049 C5.65145412,14.2189304 6.06684772,14.696786 6.02832228,15.2477254 C5.98979684,15.7986649 5.51194117,16.2140585 4.96100176,16.175533 C4.41006235,16.1370076 3.99466874,15.6591519 4.03319418,15.1082125 C4.06621598,14.6359787 4.42201102,14.2633296 4.8699401,14.1907568 L4.98370836,14.1789812 Z M6.11875671,11.0476683 C6.63435895,11.2455895 6.89189034,11.8240144 6.69396919,12.3396167 C6.49604804,12.8552189 5.91762305,13.1127503 5.40202082,12.9148292 C4.88641858,12.716908 4.62888719,12.138483 4.82680834,11.6228808 C5.02472949,11.1072786 5.60315448,10.8497472 6.11875671,11.0476683 Z M8.02917408,8.36446622 C8.45837995,8.71203027 8.52456371,9.34172671 8.17699965,9.77093257 C7.8294356,10.2001384 7.19973916,10.2663222 6.7705333,9.91875814 C6.34132744,9.57119409 6.27514368,8.94149765 6.62270773,8.51229179 C6.97027179,8.08308593 7.59996822,8.01690216 8.02917408,8.36446622 Z M10.6325169,6.35218058 C10.9413506,6.81004539 10.8205371,7.43157734 10.3626723,7.74041106 C9.90480746,8.04924477 9.2832755,7.92843119 8.97444179,7.47056639 C8.66560808,7.01270158 8.78642165,6.39116962 9.24428646,6.08233591 C9.70215127,5.7735022 10.3236832,5.89431577 10.6325169,6.35218058 Z M19.5346786,4.53239438 C20.0628312,4.69386681 20.3600841,5.25291831 20.1986117,5.78107084 C20.0371392,6.30922337 19.4780877,6.60647633 18.9499352,6.44500389 C18.4217827,6.28353146 18.1245297,5.72447996 18.2860022,5.19632743 C18.4474746,4.6681749 19.0065261,4.37092195 19.5346786,4.53239438 Z M13.7139978,5.19632743 C13.8754703,5.72447996 13.5782173,6.28353146 13.0500648,6.44500389 C12.5219123,6.60647633 11.9628608,6.30922337 11.8013883,5.78107084 C11.6399159,5.25291831 11.9371688,4.69386681 12.4653214,4.53239438 C12.9934739,4.37092195 13.5525254,4.6681749 13.7139978,5.19632743 Z M16,4 C16.5522847,4 17,4.44771525 17,5 C17,5.55228475 16.5522847,6 16,6 C15.4477153,6 15,5.55228475 15,5 C15,4.44771525 15.4477153,4 16,4 Z" id="active"></path>
                        </g>
                    </g>
                </g>
            </g>
        </g>
    </g>
</svg>