<?xml version="1.0" encoding="UTF-8"?>
<svg width="24px" height="24px" viewBox="0 0 24 24" version="1.1" xmlns="http://www.w3.org/2000/svg" xmlns:xlink="http://www.w3.org/1999/xlink">
    <!-- Generator: Sketch 58 (84663) - https://sketch.com -->
    <title>icon_monitoring</title>
    <desc>Created with Sketch.</desc>
    <g id="Page-1" stroke="none" stroke-width="1" fill="none" fill-rule="evenodd">
        <g id="시안-2차(수정)-copy-5" transform="translate(-1764.000000, -420.000000)" fill="#333F52" fill-rule="nonzero">
            <g id="icon_-monitoring" transform="translate(1764.000000, 420.000000)">
                <path d="M20,2.5 C21.1045695,2.5 22,3.3954305 22,4.5 L22,16.5 C22,17.6045695 21.1045695,18.5 20,18.5 L15.8513969,18.4992038 C16.3739818,18.8527433 16.8965666,19.278239 17.4191514,19.7756908 C17.8191761,20.1564775 17.8347721,20.7894501 17.4539858,21.189475 C17.2652329,21.3877644 17.0034398,21.5 16.7296765,21.5 L7.27027183,21.5 C6.71800691,21.5 6.27030773,21.0522649 6.27030773,20.5 C6.27030773,20.2262473 6.3825386,19.9644644 6.58081977,19.7757183 C7.10340738,19.2782611 7.625995,18.8527609 8.14858261,18.4992176 L4,18.5 C2.8954305,18.5 2,17.6045695 2,16.5 L2,4.5 C2,3.3954305 2.8954305,2.5 4,2.5 L20,2.5 Z M12.9664129,18.500336 L11.0335871,18.5003361 C9.98298131,18.7250457 8.90184306,19.3167494 7.78466217,20.3 L16.2153378,20.3 L15.9578389,20.0797653 C14.9317981,19.2277797 13.9361004,18.7077384 12.9664129,18.500336 Z M3.5,15.474 L3.5,16.5 C3.5,16.7761424 3.72385763,17 4,17 L20,17 C20.2761424,17 20.5,16.7761424 20.5,16.5 L20.5,15.523 L3.5,15.474 Z M3.5,6.474 L3.5,14.474 L20.5,14.523 L20.5,6.523 L3.5,6.474 Z M8.5,11.5 L8.5,13.5 L7,13.5 L7,11.5 L8.5,11.5 Z M11.5,10 L11.5,13.5 L10,13.5 L10,10 L11.5,10 Z M17.5,11.5 L17.5,13.5 L16,13.5 L16,11.5 L17.5,11.5 Z M14.5,7.5 L14.5,13.5 L13,13.5 L13,7.5 L14.5,7.5 Z M20,4 L4,4 C3.72385763,4 3.5,4.22385763 3.5,4.5 L3.5,5.474 L20.5,5.523 L20.5,4.5 C20.5,4.22385763 20.2761424,4 20,4 Z" id="Combined-Shape"></path>
            </g>
        </g>
    </g>
</svg>