<svg xmlns="http://www.w3.org/2000/svg" width="183" height="23" viewBox="0 0 183 23">
    <g fill="none" fill-rule="evenodd">
        <path fill="#000" d="M4.544.206v22.638H0V.206h4.544zm20.565 0a6.462 6.462 0 0 1 6.463 6.462v16.176h-4.629V6.668a1.836 1.836 0 0 0-1.834-1.834H14.832a1.836 1.836 0 0 0-1.834 1.834v16.176H8.369V6.668A6.462 6.462 0 0 1 14.832.206zm26.03 0a6.462 6.462 0 0 1 6.463 6.462v9.714a6.462 6.462 0 0 1-6.462 6.462H35.009V.206zM64.5.232v7.145c0 1.011.823 1.834 1.834 1.834h10.052a1.836 1.836 0 0 0 1.834-1.834V.232h4.628v16.15a6.462 6.462 0 0 1-6.462 6.462H60.82v-4.628h15.566a1.836 1.836 0 0 0 1.834-1.834v-2.543H66.333a6.462 6.462 0 0 1-6.462-6.462V.232H64.5zM51.14 4.834H39.554v13.382H51.14a1.836 1.836 0 0 0 1.834-1.834V6.668a1.836 1.836 0 0 0-1.834-1.834z"/>
        <path fill="#0072CE" d="M105.743.206v3.048H91.928a2.639 2.639 0 0 0-2.636 2.636v11.27a2.639 2.639 0 0 0 2.636 2.636h13.815v3.048H91.928a5.684 5.684 0 0 1-5.684-5.684V5.89A5.684 5.684 0 0 1 91.928.206h13.815zm77.11 0v3.048h-16.862a2.639 2.639 0 0 0-2.636 2.636v4.062h17.1v2.95h-17.1v4.258a2.639 2.639 0 0 0 2.636 2.636h16.863v3.048H165.99a5.684 5.684 0 0 1-5.684-5.684V5.89a5.684 5.684 0 0 1 5.684-5.684h16.863zM151.377.188a5.684 5.684 0 0 1 5.683 5.684v1.45a5.667 5.667 0 0 1-1.78 4.128 5.666 5.666 0 0 1 1.78 4.13v7.202h-3.047v-7.203a2.64 2.64 0 0 0-2.174-2.594c-.153.012-.306.02-.462.02h-13.918v9.82h-2.949V.189zM125.88.232a5.684 5.684 0 0 1 5.683 5.683v16.867h-3.047v-9.88h-16.543v9.88h-3.047V5.915A5.684 5.684 0 0 1 114.61.232zm0 3.048h-11.27a2.639 2.639 0 0 0-2.637 2.635v4.037h16.543V5.915a2.639 2.639 0 0 0-2.636-2.635zm25.496-.044h-13.918v6.66h13.918c.156 0 .31.008.462.02a2.64 2.64 0 0 0 2.174-2.594v-1.45a2.64 2.64 0 0 0-2.636-2.636z"/>
    </g>
</svg>
