<svg xmlns="http://www.w3.org/2000/svg" width="58" height="8" viewBox="0 0 58 8">
    <g fill="none" fill-rule="evenodd">
        <path fill="#000" d="M1.42.064V7.14H0V.064h1.42zm6.427 0a2.02 2.02 0 0 1 2.014 1.87l.005.15v5.055H8.42V2.084a.574.574 0 0 0-.48-.566l-.093-.007H4.635a.574.574 0 0 0-.566.48l-.007.093v5.055H2.615V2.084A2.02 2.02 0 0 1 4.485.07l.15-.006h3.212zm3.093 0h5.041a2.02 2.02 0 0 1 2.014 1.87l.006.15v3.035a2.02 2.02 0 0 1-1.87 2.014l-.15.006h-5.04V.064h5.04zm9.216.008v2.233c0 .316.257.573.573.573h3.141a.574.574 0 0 0 .574-.573V.072h1.446V5.12a2.02 2.02 0 0 1-2.02 2.02h-4.864V5.692h4.864a.574.574 0 0 0 .574-.573v-.794h-3.715a2.02 2.02 0 0 1-2.02-2.02V.072h1.447zm-4.175 1.439h-3.62v4.181h3.62a.574.574 0 0 0 .566-.48l.007-.093V2.084a.574.574 0 0 0-.573-.573z"/>
        <path fill="#0072CE" d="M33.045.064v.953h-4.317a.825.825 0 0 0-.818.72l-.006.104v3.522c0 .419.315.766.72.817l.104.006h4.317v.953h-4.317a1.776 1.776 0 0 1-1.77-1.63l-.007-.146V1.84c0-.932.718-1.697 1.63-1.77l.147-.007h4.317zm24.097 0v.953h-5.27a.825.825 0 0 0-.824.824V3.11h5.344v.922h-5.344v1.33c0 .455.37.824.824.824h5.27v.953h-5.27a1.776 1.776 0 0 1-1.776-1.776V1.84c0-.981.795-1.777 1.776-1.777h5.27zM42.034.06h5.27c.933 0 1.697.717 1.771 1.63l.006.146v.453c0 .508-.214.966-.556 1.29.304.288.507.682.548 1.123l.008.167V7.12h-.952V4.87a.825.825 0 0 0-.68-.811l-.071.004-.073.002h-4.35v3.069h-.92V.059h5.27zm-2.697.013c.932 0 1.697.718 1.77 1.63l.007.147v5.27h-.953V4.032h-5.17v3.087h-.952V1.85c0-.932.718-1.697 1.63-1.77l.146-.007h3.522zm0 .953h-3.522a.825.825 0 0 0-.817.72l-.006.104V3.11h5.17V1.849a.825.825 0 0 0-.825-.824zm7.968-.014h-4.35v2.081h4.35c.049 0 .097.003.145.007a.826.826 0 0 0 .672-.702l.007-.109v-.453a.825.825 0 0 0-.824-.824z"/>
    </g>
</svg>
