<svg xmlns="http://www.w3.org/2000/svg" width="36" height="44" viewBox="0 0 36 44">
    <path fill="#0072CE" fill-rule="evenodd" d="M36 14.661V44h-1.58L15.593 25.633h8.323c1.697 0 3.082-1.394 3.084-3.113v-6.828c0-.549.388-1.03.954-1.03H36zM36 0v9.165H23.722a2.049 2.049 0 0 0-1.464.615 2.119 2.119 0 0 0-.611 1.484v7.029a2.076 2.076 0 0 1-.623 1.325 2.053 2.053 0 0 1-.608.402c-.232.098-.478.159-.735.159H7.486a2.94 2.94 0 0 0-.39.033 2.737 2.737 0 0 0-1.748 1.03 2.95 2.95 0 0 0-.287.452c-.06.114-.109.233-.15.354a2.867 2.867 0 0 0-.087 1.544c.057.253.147.497.269.724.127.233.475.64.471.635a1126315 1126315 0 0 1 16.254 18.937l.096.112H0V0h36z"/>
</svg>
