<?xml version="1.0" encoding="UTF-8"?>
<svg width="24px" height="24px" viewBox="0 0 24 24" version="1.1" xmlns="http://www.w3.org/2000/svg" xmlns:xlink="http://www.w3.org/1999/xlink">
    <!-- Generator: Sketch 58 (84663) - https://sketch.com -->
    <title>icon_ stoppage</title>
    <desc>Created with Sketch.</desc>
    <g id="Page-1" stroke="none" stroke-width="1" fill="none" fill-rule="evenodd">
        <g id="시안-2차(수정)_최종" transform="translate(-1660.000000, -420.000000)" fill="#FA6400">
            <g id="icon_-stoppage" transform="translate(1660.000000, 420.000000)">
                <path d="M12.1869009,19.5244405 C12.7177673,19.5035644 13.1614075,19.921648 13.1778089,20.4582655 C13.1941912,20.9948837 12.7771273,21.4468294 12.2462616,21.4677245 C11.7153951,21.4886005 11.2717549,21.0705169 11.2553535,20.5338994 C11.2389713,19.9972813 11.6560351,19.5453355 12.1869009,19.5244405 Z M15.7359356,19.6931108 C15.9173402,20.1984026 15.6603479,20.7571084 15.1619214,20.9410273 C14.6634885,21.1249284 14.1123666,20.8643996 13.930944,20.3591144 C13.7495395,19.8538225 14.0065318,19.2951168 14.5049583,19.1111979 C15.0033912,18.9272968 15.5545131,19.1878256 15.7359356,19.6931108 Z M9.57778983,19.1111979 C10.0762163,19.2951168 10.3332086,19.8538225 10.151804,20.3591144 C9.97038147,20.8643996 9.41925962,21.1249284 8.92082668,20.9410273 C8.42240023,20.7571084 8.16540789,20.1984026 8.34681246,19.6931108 C8.52823504,19.1878256 9.07935689,18.9272968 9.57778983,19.1111979 Z M7.50088523,18.0018617 C7.91808289,18.3308012 7.98984755,18.941577 7.66117779,19.3660809 C7.33249294,19.7905731 6.72783709,19.8680447 6.31062775,19.5391201 C5.8934301,19.2101806 5.82166544,18.5994048 6.15033519,18.1749009 C6.47902004,17.7504087 7.0836759,17.6729371 7.50088523,18.0018617 Z M18.126632,17.7037198 C18.4804102,18.1013795 18.4460872,18.716329 18.0499682,19.0772725 C17.653826,19.4381901 17.0458945,19.4084246 16.6920906,19.010788 C16.3383124,18.6131284 16.3726354,17.9981788 16.7687544,17.6372354 C17.1648966,17.2763177 17.7728282,17.3060832 18.126632,17.7037198 Z M19.5913446,15.5441118 C20.0506913,15.8129851 20.208078,16.4084433 19.9428842,16.8741284 C19.6776602,17.3397961 19.0902849,17.4993487 18.630921,17.2305052 C18.1715743,16.9616318 18.0141876,16.3661737 18.2793815,15.9004886 C18.5446054,15.4348208 19.1319807,15.2752683 19.5913446,15.5441118 Z M5.80336664,15.9004886 C6.06856051,16.3661737 5.91117376,16.9616318 5.45182709,17.2305052 C4.99246319,17.4993487 4.40508786,17.3397961 4.13986393,16.8741284 C3.87467006,16.4084433 4.0320568,15.8129851 4.49140347,15.5441118 C4.95076738,15.2752683 5.53814271,15.4348208 5.80336664,15.9004886 Z M14,9 C14.5522847,9 15,9.44771525 15,10 L15,14 C15,14.5522847 14.5522847,15 14,15 L10,15 C9.44771525,15 9,14.5522847 9,14 L9,10 C9,9.44771525 9.44771525,9 10,9 L14,9 Z M4.90335919,13.7819348 C5.01166894,14.3067771 4.67797856,14.8244562 4.15802749,14.938224 C3.63806925,15.0519581 3.12874655,14.7187057 3.02040286,14.1938707 C2.91209311,13.6690284 3.24578349,13.1513492 3.76573456,13.0375814 C4.2856928,12.9238473 4.79501549,13.2570997 4.90335919,13.7819348 Z M20.1920223,12.3913463 C20.7176694,12.4639634 21.0821473,12.9541749 21.0061089,13.4862674 C20.930065,14.0183592 20.4423,14.3908394 19.9166522,14.3182276 C19.3910051,14.2456105 19.0265271,13.755399 19.1025656,13.2233065 C19.1786094,12.6912147 19.6663744,12.3187345 20.1920223,12.3913463 Z M21.0266254,10.6432689 C21.1187288,11.1728171 20.7699395,11.6777945 20.2475804,11.7711707 C19.7252203,11.8645416 19.2270975,11.5109526 19.1349888,10.9814054 C19.0428853,10.4518572 19.3916747,9.94687979 19.9140338,9.8535036 C20.4363938,9.76013269 20.9345167,10.1137217 21.0266254,10.6432689 Z M4.05729011,9.84023801 L4.16871429,9.8535036 C4.69107339,9.94687979 5.03986275,10.4518572 4.94775934,10.9814054 C4.85565058,11.5109526 4.35752775,11.8645416 3.83516773,11.7711707 C3.31280863,11.6777945 2.96401927,11.1728171 3.05612268,10.6432689 C3.13507305,10.1893713 3.51231946,9.86474911 3.94744267,9.8400623 L4.05729011,9.84023801 Z M5.01104533,7.44461483 L5.11546215,7.47872667 L5.21733355,7.52577496 C5.68527175,7.77599883 5.86094353,8.36404275 5.60970859,8.83921147 C5.35846887,9.31437763 4.7754609,9.49673235 4.30752019,9.24651322 C3.83958199,8.99628935 3.66391021,8.40824542 3.91514514,7.9330767 C4.13049348,7.52579142 4.58958992,7.33363291 5.01104533,7.44461483 Z M19.7314947,7.310825 C20.0111235,7.7651069 19.8717557,8.36554524 19.4202081,8.65194156 C18.9686604,8.93833789 18.3759248,8.80223974 18.096296,8.34795784 C17.8166672,7.89367594 17.956035,7.29323761 18.4075826,7.00684128 C18.8591303,6.72044496 19.4518659,6.85654311 19.7314947,7.310825 Z M17.9060786,5.1639516 C18.3124022,5.50958931 18.3654013,6.12370711 18.0244553,6.5356221 C17.6835093,6.94753708 17.0777276,7.00126543 16.671404,6.65562771 C16.2650804,6.30999 16.2120813,5.6958722 16.5530273,5.28395722 C16.8939733,4.87204224 17.499755,4.81831389 17.9060786,5.1639516 Z M7.52972078,5.28395722 C7.87066676,5.6958722 7.81766773,6.30999 7.41134413,6.65562771 C7.00502052,7.00126543 6.39923882,6.94753708 6.05829283,6.5356221 C5.71734684,6.12370711 5.77034587,5.50958931 6.17666948,5.1639516 C6.58299309,4.81831389 7.18877479,4.87204224 7.52972078,5.28395722 Z M9.82590816,4.21848622 C10.0228783,4.71559875 9.78270042,5.28328188 9.28945578,5.48644198 C8.79621114,5.68960208 8.23668148,5.45130655 8.0397113,4.95419401 C7.84274113,4.45708148 8.08291904,3.88939834 8.57616368,3.68623825 C9.06940832,3.48307815 9.62893798,3.72137368 9.82590816,4.21848622 Z M14.822527,3.44049135 C15.3269843,3.60439947 15.6012255,4.15184412 15.4350619,4.66324321 C15.2688982,5.1746423 14.7252525,5.45633939 14.2207952,5.29243128 C13.7163379,5.12852316 13.4420967,4.58107851 13.6082604,4.06967942 C13.774424,3.55828033 14.3180697,3.27658324 14.822527,3.44049135 Z M12.041374,3 C12.5717918,3 13.0017804,3.43590561 13.0017804,3.97362244 C13.0017804,4.51133926 12.5717918,4.94724487 12.041374,4.94724487 C11.5109562,4.94724487 11.0809677,4.51133926 11.0809677,3.97362244 C11.0809677,3.43590561 11.5109562,3 12.041374,3 Z" id="Combined-Shape"></path>
            </g>
        </g>
    </g>
</svg>