<?xml version="1.0" encoding="UTF-8"?>
<svg width="32px" height="32px" viewBox="0 0 32 32" version="1.1" xmlns="http://www.w3.org/2000/svg" xmlns:xlink="http://www.w3.org/1999/xlink">
    <!-- Generator: Sketch 57.1 (83088) - https://sketch.com -->
    <title>profile</title>
    <desc>Created with Sketch.</desc>
    <defs>
        <circle id="path-1" cx="16" cy="16" r="16"></circle>
        <polygon id="path-3" points="0.160791211 0.0366698163 29.2139943 0.0366698163 29.2139943 31.4666667 0.160791211 31.4666667"></polygon>
        <polygon id="path-5" points="0.207983377 0.0400996885 19.0813091 0.0400996885 19.0813091 26.6666417 0.207983377 26.6666417"></polygon>
        <polygon id="path-7" points="0.000125373134 0.19468588 33.4806448 0.19468588 33.4806448 40.5333333 0.000125373134 40.5333333"></polygon>
    </defs>
    <g id="Page-1" stroke="none" stroke-width="1" fill="none" fill-rule="evenodd">
        <g id="시안-2차(수정)" transform="translate(-29.000000, -128.000000)">
            <g id="Left-pannel_Menu">
                <g id="Profile" transform="translate(15.000000, 128.000000)">
                    <g id="profile" transform="translate(14.000000, 0.000000)">
                        <g id="Group-10">
                            <g>
                                <mask id="mask-2" fill="white">
                                    <use xlink:href="#path-1"></use>
                                </mask>
                                <use id="Mask" stroke="#E2E2E2" stroke-width="1.06666667" fill="#FFFFFF" xlink:href="#path-1"></use>
                                <g mask="url(#mask-2)">
                                    <g transform="translate(0.000000, -6.400000)">
                                        <g id="Group-3" transform="translate(4.266667, 9.066667)">
                                            <mask id="mask-4" fill="white">
                                                <use xlink:href="#path-3"></use>
                                            </mask>
                                            <g id="Clip-2"></g>
                                            <path d="M17.0497618,0.183844619 C16.8203601,0.279235696 16.610514,0.417243045 16.4352661,0.591424672 C16.2600182,0.761641995 16.1181151,0.969272441 16.020588,1.19325564 C15.921306,1.42615853 15.8666507,1.67913071 15.8666507,1.93061627 L15.8666507,8.2720168 C15.8513573,8.50045984 15.7891806,8.72667297 15.685135,8.9328168 C15.5866051,9.13227087 15.4512205,9.31289449 15.2877561,9.46725459 C15.1232889,9.61938478 14.9302405,9.74351706 14.7224,9.82974068 C14.5067875,9.9191853 14.2778872,9.97319895 14.0392091,9.97319895 L2.69899259,9.97319895 C2.63806952,9.97319895 2.57689573,9.97567664 2.51622336,9.9823664 C2.45655385,9.98781732 2.39638291,9.99450709 2.33596125,10.0041701 C2.1384,10.0329113 1.94710655,10.0851906 1.7618302,10.1575391 C1.66530598,10.1969344 1.56878177,10.2400462 1.47827464,10.2900955 C1.38576182,10.3436136 1.29675897,10.3971318 1.2112661,10.459074 C1.11825185,10.5272105 1.02975043,10.6000546 0.945009687,10.6808273 C0.862525356,10.7596178 0.783550997,10.8443549 0.711095157,10.9333039 C0.609556695,11.060905 0.519550997,11.1976735 0.443585185,11.3413795 C0.389180627,11.4434604 0.342297436,11.5504966 0.303687749,11.6597627 C0.266331624,11.7695244 0.234992593,11.8825071 0.211425641,11.9967286 C0.175573789,12.1714058 0.158525356,12.3490562 0.160791211,12.5239811 C0.163288889,12.7013837 0.184098006,12.8795297 0.22245698,13.0524724 C0.276861538,13.281411 0.360348718,13.5016777 0.473670655,13.7058394 C0.591505413,13.9169386 0.915927066,14.2828934 0.912166382,14.2789291 C0.908405698,14.273726 16.1151066,31.4666667 16.1151066,31.4666667 L27.7461493,31.4666667 L10.2376593,14.8953785 L17.9768957,14.8953785 C19.5543772,14.8953785 20.8430382,13.6372073 20.8447932,12.0854299 L20.8447932,5.92564409 C20.8447932,5.43010604 21.2058188,4.99527139 21.7325652,4.99527139 L29.2143202,4.99527139 L29.2143202,0.0366698163 L17.7973858,0.0366698163 C17.5409071,0.0366698163 17.2844285,0.0847370079 17.0497618,0.183844619" id="Fill-1" fill="#FFFFFF" mask="url(#mask-4)"></path>
                                        </g>
                                        <g id="Group-6" transform="translate(14.400000, 13.866667)">
                                            <mask id="mask-6" fill="white">
                                                <use xlink:href="#path-5"></use>
                                            </mask>
                                            <g id="Clip-5"></g>
                                            <path d="M10.7575106,0.975925234 L10.7575106,7.17181308 C10.7557652,8.73268536 9.47435221,9.99823053 7.90543792,9.99823053 L0.207983377,9.99823053 L17.621386,26.6666417 L19.0815834,26.6666417 L19.0815834,0.0400996885 L11.6404613,0.0400996885 C11.1165756,0.0400996885 10.7575106,0.477482866 10.7575106,0.975925234" id="Fill-4" fill="#747474" mask="url(#mask-6)"></path>
                                        </g>
                                        <g id="Group-9">
                                            <mask id="mask-8" fill="white">
                                                <use xlink:href="#path-7"></use>
                                            </mask>
                                            <g id="Clip-8"></g>
                                            <path d="M0.000125373134,0.19468588 L0.000125373134,40.5334089 L1.63599403,40.5334089 L20.3800299,40.5334089 C20.3800299,40.5334089 5.17126567,23.0635422 5.17502687,23.0685774 C5.17878806,23.0728573 4.85432239,22.701008 4.73647164,22.4865087 C4.62313433,22.2790586 4.53963582,22.0552441 4.48522388,21.8223662 C4.4468597,21.6468896 4.42604776,21.4658743 4.42379104,21.2853625 C4.42128358,21.10762 4.43833433,20.92736 4.47419104,20.7498693 C4.49776119,20.633808 4.52910448,20.5190055 4.56646567,20.4074759 C4.6050806,20.2964499 4.65197015,20.1876896 4.70638209,20.0839646 C4.78235821,19.9379439 4.87237612,19.7989724 4.97392836,19.6693161 C5.04639403,19.5789343 5.12512836,19.4925807 5.20787463,19.4127728 C5.29237612,19.3306991 5.3811403,19.2566817 5.47416716,19.187196 C5.55967164,19.1242561 5.64868657,19.0701277 5.74121194,19.0157476 C5.83173134,18.9648921 5.92826866,18.9210859 6.02480597,18.8810561 C6.21010746,18.8075422 6.40142687,18.7544209 6.59876418,18.7252167 C6.65944478,18.7151463 6.71962388,18.7086006 6.77930149,18.7030619 C6.83998209,18.6960126 6.90091343,18.6937467 6.96209552,18.6937467 L18.3038507,18.6937467 C18.5425612,18.6937467 18.7714925,18.6388631 18.9871343,18.547726 C19.195003,18.4603654 19.3880776,18.3342337 19.5525672,18.1796532 C19.7160537,18.022555 19.8514567,17.8392739 19.95,17.6366072 C20.0540597,17.427143 20.1162448,17.1972863 20.1315403,16.964912 L20.1315403,10.5216225 C20.1315403,10.2658345 20.186203,10.0087877 20.2852478,9.7721335 C20.3830388,9.54479437 20.5247104,9.33356787 20.7002328,9.16060886 C20.8755045,8.98387346 21.0853791,8.84364323 21.3148119,8.74671569 C21.5492597,8.64601176 21.8060239,8.59717035 22.0625373,8.59717035 L33.4807701,8.59717035 L33.4807701,5.79055172 L33.4807701,0.19468588 L0.000125373134,0.19468588 Z" id="Fill-7" fill="#747474" mask="url(#mask-8)"></path>
                                        </g>
                                    </g>
                                </g>
                            </g>
                        </g>
                    </g>
                </g>
            </g>
        </g>
    </g>
</svg>