<?xml version="1.0" encoding="UTF-8"?>
<svg width="32px" height="33px" viewBox="0 0 32 33" version="1.1" xmlns="http://www.w3.org/2000/svg" xmlns:xlink="http://www.w3.org/1999/xlink">
    <!-- Generator: Sketch 57.1 (83088) - https://sketch.com -->
    <title>icon_busy copy 2</title>
    <desc>Created with Sketch.</desc>
    <g id="Page-1" stroke="none" stroke-width="1" fill="none" fill-rule="evenodd">
        <g id="시안-2차(수정)-copy-5" transform="translate(-466.000000, -352.000000)">
            <g id="Robot-information" transform="translate(120.000000, 292.000000)">
                <g id="rState" transform="translate(316.000000, 0.000000)">
                    <g id="item1" transform="translate(30.000000, 61.000000)">
                        <g id="icon_busy">
                            <path d="M18,19 L18,23.999 L21,23.9998644 L16,28.9998644 L11,23.9998644 L14,23.999 L14,19 L18,19 Z M8.00006781,10.9999322 L8.00093219,13.9999322 L12.9999322,13.9999322 L12.9999322,17.9999322 L8.00093219,17.9999322 L8.00006781,20.9999322 L3.00006781,15.9999322 L8.00006781,10.9999322 Z M23.9999322,10.9999322 L28.9999322,15.9999322 L23.9999322,20.9999322 L23.9990678,17.9999322 L19.0000678,17.9999322 L19.0000678,13.9999322 L23.9990678,13.9999322 L23.9999322,10.9999322 Z M16,3 L21,8 L18,8.00086438 L18,12.9998644 L14,12.9998644 L14,8.00086438 L11,8 L16,3 Z" id="inactive" fill="#AAAFB6"></path>
                            <path d="M18,19 L18,23.999 L21,23.9998644 L16,28.9998644 L11,23.9998644 L14,23.999 L14,19 L18,19 Z M8.00006781,10.9999322 L8.00093219,13.9999322 L12.9999322,13.9999322 L12.9999322,17.9999322 L8.00093219,17.9999322 L8.00006781,20.9999322 L3.00006781,15.9999322 L8.00006781,10.9999322 Z M23.9999322,10.9999322 L28.9999322,15.9999322 L23.9999322,20.9999322 L23.9990678,17.9999322 L19.0000678,17.9999322 L19.0000678,13.9999322 L23.9990678,13.9999322 L23.9999322,10.9999322 Z M16,3 L21,8 L18,8.00086438 L18,12.9998644 L14,12.9998644 L14,8.00086438 L11,8 L16,3 Z" id="avtive" fill="#047BF8"></path>
                        </g>
                    </g>
                </g>
            </g>
        </g>
    </g>
</svg>