<svg xmlns="http://www.w3.org/2000/svg" width="56" height="56" viewBox="0 0 56 56">
    <g fill="none" fill-rule="evenodd">
        <g stroke-linecap="round" stroke-linejoin="round" stroke-width="1.8">
            <path stroke="#333F52" d="M26.256 10.5H12.718a3.385 3.385 0 0 0-3.385 3.385v27.077a3.385 3.385 0 0 0 3.385 3.384h20.308a3.385 3.385 0 0 0 3.384-3.384V20.654L26.256 10.5z"/>
            <path stroke="#333F52" d="M26.256 10.5v10.154H36.41"/>
            <path stroke="#047BF8" d="M29.641 29.115H16.102M29.641 35.884H16.102M19.487 22.346h-3.384"/>
            <path stroke="#333F52" d="M32.234 10.067l8.6 8.6V31.5M38.067 10.067l8.6 8.6V31.5"/>
        </g>
        <rect width="18" height="18" x="31" y="31" fill="#FFF" rx="2"/>
        <path fill="#047BF8" d="M47 31a2 2 0 0 1 2 2v1.499h-5.191a.9.9 0 0 0-.642.265.91.91 0 0 0-.268.638v3.023a.894.894 0 0 1-.54.742.829.829 0 0 1-.32.07h-5.343a1.243 1.243 0 0 0-.826.337 1.27 1.27 0 0 0-.302.467 1.186 1.186 0 0 0 .08.975c.055.1.208.274.206.272L42.595 49 33 48.998a2 2 0 0 1-2-2V33a2 2 0 0 1 2-2h14zm2 5.863v10.135a2 2 0 0 1-1.188 1.829l-7.565-7.245h3.646c.743 0 1.35-.6 1.351-1.34v-2.935c0-.237.17-.444.418-.444H49z"/>
    </g>
</svg>
