<svg xmlns="http://www.w3.org/2000/svg" width="405" height="30" viewBox="0 0 405 30">
    <g fill="#FFF" fill-rule="evenodd">
        <path d="M5.785 29.79V9.665c0-2.47.88-3.349 3.35-3.349h20.65c2.47 0 3.352.879 3.352 3.349V29.79h5.784V6.364A6.365 6.365 0 0 0 32.558.002H6.361A6.363 6.363 0 0 0 0 6.364V29.79h5.785zM124.723.002v20.141c0 2.468-.88 3.348-3.35 3.348h-20.65c-2.468 0-3.35-.88-3.35-3.348V.002h-5.785v23.44a6.36 6.36 0 0 0 6.363 6.362h26.195a6.363 6.363 0 0 0 6.363-6.362V.002h-5.786zM163.458.002h-19.683a6.364 6.364 0 0 0-6.362 6.362v23.44h5.787V9.664c0-2.47.878-3.348 3.35-3.348h16.908V.002zM201.38 20.143c0 2.468-.88 3.348-3.348 3.348h-20.65c-2.471 0-3.348-.88-3.348-3.348V9.661c0-2.467.877-3.347 3.347-3.347h20.651c2.468 0 3.348.88 3.348 3.347v10.482zM200.804 0H174.61a6.365 6.365 0 0 0-6.363 6.363v17.08a6.363 6.363 0 0 0 6.363 6.361h26.195a6.361 6.361 0 0 0 6.362-6.362V6.362A6.363 6.363 0 0 0 200.804 0zM262.319 0h-17.473c-1.28 0-2.47.38-3.47 1.035A6.314 6.314 0 0 0 237.908 0h-17.473a6.364 6.364 0 0 0-6.363 6.362V29.79h5.787V9.661c0-2.467.88-3.347 3.349-3.347h11.927c2.47 0 3.35.88 3.35 3.347V29.79h5.785V9.661c0-2.467.88-3.347 3.35-3.347h11.926c2.47 0 3.35.88 3.35 3.347V29.79h5.785V6.363A6.362 6.362 0 0 0 262.319 0M363.306 0h-7.647l-12.777 10.64h-15.66V0h-5.785v29.79h5.785V17.023h15.66l12.777 12.767h7.647l-15.75-16.074zM51.612 9.661c0-2.467.879-3.347 3.346-3.347H75.61c2.199 0 3.349.873 3.349 2.739v.112c-.003 1.988-1.002 2.743-3.349 2.743H51.612V9.66zm3.346 13.83c-2.457 0-3.34-.89-3.346-3.334v-1.934H78.38c3.628 0 6.332-1.611 6.332-4.981v-7.53C84.713 2.425 81.677 0 78.38 0H52.187a6.366 6.366 0 0 0-6.363 6.362V23.443a6.36 6.36 0 0 0 6.363 6.362h32.558v-6.313H54.958zM281.371 9.661c0-2.467.878-3.347 3.348-3.347h20.652c2.198 0 3.349.873 3.349 2.739v.112c-.004 1.988-1.003 2.743-3.348 2.743H281.37V9.66zm3.348 13.83c-2.458 0-3.34-.89-3.348-3.334v-1.934h26.772c3.628 0 6.328-1.611 6.328-4.981v-7.53c0-3.287-3.034-5.712-6.327-5.712h-26.198a6.361 6.361 0 0 0-6.36 6.362V23.443a6.36 6.36 0 0 0 6.36 6.362h32.56v-6.313h-29.787zM374.519 23.491c-2.2 0-3.348-.874-3.348-2.738V19.68c.002-1.986 1-2.743 3.348-2.743h23.998v6.554H374.52zM397.942 0h-31.02v6.314h28.248c2.458 0 3.34.89 3.347 3.333v.976H371.743c-3.624 0-6.326 1.61-6.326 4.98v8.489c0 3.288 3.035 5.712 6.326 5.712H404.305V6.362A6.362 6.362 0 0 0 397.941 0z"/>
    </g>
</svg>
