<svg xmlns="http://www.w3.org/2000/svg" xmlns:xlink="http://www.w3.org/1999/xlink" width="523" height="414" viewBox="0 0 523 414">
    <defs>
        <path id="a" d="M71.662 6.925l-.576 18.16a92.37 92.37 0 0 0-20.862 13.05l-16.58-7.4-23.563 33.118L22.503 77.09a92.311 92.311 0 0 0-5.494 23.983L.034 107.57l6.752 40.078 18.166.577a92.378 92.378 0 0 0 13.05 20.856l-7.4 16.58L63.72 209.23l13.238-12.423a92.068 92.068 0 0 0 11.09 3.374l.977.231 8.572-45.283-.844-.239a46.713 46.713 0 0 1-14.382-6.92c-21.088-15.01-26.037-44.38-11.031-65.467 15.007-21.09 44.377-26.039 65.467-11.03 14.799 10.529 22.242 28.883 18.963 46.758l-.163.889 44.714 11.016.206-.97a92.941 92.941 0 0 0 1.642-10.8l16.97-6.494-6.753-40.078-18.16-.576a92.537 92.537 0 0 0-13.05-20.862l7.4-16.58-33.118-23.563-13.237 12.422a92.305 92.305 0 0 0-23.987-5.494L111.74.167 71.662 6.925zM50.998 39.991a90.444 90.444 0 0 1 21.42-13.4l.549-.245.564-17.79 36.978-6.234 6.36 16.628.6.052a90.39 90.39 0 0 1 24.629 5.64l.561.216 12.967-12.168 30.557 21.74-7.25 16.24.387.46a90.615 90.615 0 0 1 13.4 21.42l.245.55 17.79.564 6.23 36.978-16.624 6.36-.051.6a91.049 91.049 0 0 1-1.46 10.195l-41.037-10.11c3.01-18.322-4.735-36.993-19.892-47.778-21.954-15.622-52.524-10.472-68.145 11.481-15.62 21.951-10.47 52.52 11.482 68.146a48.668 48.668 0 0 0 14.128 6.955l-7.873 41.586a90.195 90.195 0 0 1-10.433-3.275l-.561-.215-12.966 12.167-30.558-21.746 7.25-16.24-.387-.46a90.45 90.45 0 0 1-13.4-21.414l-.245-.55-17.794-.564-6.23-36.978 16.628-6.366.052-.6a90.38 90.38 0 0 1 5.64-24.622l.216-.562-12.168-12.966 21.74-30.557 16.24 7.25.46-.388z"/>
        <linearGradient id="b" x1="30.346%" x2="57.511%" y1="6.11%" y2="69.796%">
            <stop offset="0%" stop-color="#3FD4E6"/>
            <stop offset="100%" stop-color="#5477FF"/>
        </linearGradient>
        <path id="d" d="M141.484 12.465a90.49 90.49 0 0 0-10.05-3.192l-8.095 43.57a47.79 47.79 0 0 1 13.064 6.57c15.664 11.143 22.608 29.976 19.354 47.712l42.872 10.561a92.07 92.07 0 0 0 1.68-11.281l16.793-6.427-3.24-19.265-3.25-19.265-17.975-.569a91.631 91.631 0 0 0-13.54-21.647l7.326-16.406L154.583.17l-13.1 12.295zM49.419 27.978l-16.406-7.326L21.687 36.57 10.36 52.487l12.295 13.104a91.303 91.303 0 0 0-5.703 24.883L.151 96.906l3.25 19.265 3.244 19.264 17.976.569a91.472 91.472 0 0 0 13.544 21.642l-7.326 16.407 15.918 11.335 15.922 11.326 13.1-12.295a90.412 90.412 0 0 0 11.53 3.547l8.223-43.432a47.692 47.692 0 0 1-14.678-7.059C59.301 122.131 54.26 92.221 69.6 70.667A47.66 47.66 0 0 1 83.015 57.95L61.136 19.608a90.959 90.959 0 0 0-11.717 8.37z"/>
        <linearGradient id="e" x1="21.424%" x2="63.218%" y1=".125%" y2="73.067%">
            <stop offset="0%" stop-color="#3FD4E6"/>
            <stop offset="100%" stop-color="#5477FF"/>
        </linearGradient>
        <path id="g" d="M.168 12.809c0 6.97 5.67 12.64 12.64 12.64 6.97 0 12.64-5.67 12.64-12.64 0-6.97-5.67-12.64-12.64-12.64C5.838.17.168 5.84.168 12.81m3.456 0c0-5.065 4.12-9.186 9.184-9.186 5.064 0 9.184 4.12 9.184 9.186 0 5.065-4.12 9.186-9.184 9.186-5.064 0-9.184-4.121-9.184-9.186"/>
        <linearGradient id="h" x1="-.001%" y1="50%" y2="50%">
            <stop offset="0%" stop-color="#3FD4E6"/>
            <stop offset="100%" stop-color="#5477FF"/>
        </linearGradient>
        <path id="j" d="M0 414h509.898V.23H0z"/>
        <path id="l" d="M3.61.352C-8.027 5.918 13.986 15.533 6.395 28.943c-7.59 13.41 2.937 12.92 7.306 25.399 3.009 8.59-12.366 16.096-2.752 22.422 9.615 6.325 18.938 26.77 18.938 26.77 10.588 8.299 1.467-11.898 8.504-28.831 7.037-16.933-14.285-7.807-2.961-28.808 11.323-21-13.221-7.21-11.83-27.326.436-6.299-1.81-6.074-4.885-5.85-2.538.186-5.641.371-8.272-3.105 0 0-2.948-9.43-6.115-9.43-.238 0-.477.054-.716.168"/>
        <linearGradient id="m" x1="0%" y1="50%" y2="50%">
            <stop offset="0%" stop-color="#3FD4E6"/>
            <stop offset="100%" stop-color="#5477FF"/>
        </linearGradient>
        <path id="o" d="M27.724 1.562c-.946.517-1.724 1.331-2.548 2.195-1.94 2.032-4.356 4.56-10.464 4.59-3.483.016-5.39.497-6.378 1.607-1.122 1.26-.91 3.146-.618 5.757.102.903.216 1.926.286 3.032.415 6.597-3.48 11.356-3.518 11.402-2.326 2.77-5.193 8.519-3.956 12.057.519 1.483 1.679 2.416 3.448 2.774.704.142 1.348.21 1.94.21 4.272 0 5.836-3.543 7.903-8.227.433-.983.881-1.998 1.389-3.07 2.622-5.534 4.944-6.445 8.792-7.955.94-.37 2.006-.788 3.176-1.313 5.512-2.478 4.444-6.128 3.503-9.349-.132-.45-.263-.9-.377-1.344-.485-1.894.447-2.844 1.856-4.283 1.048-1.069 2.352-2.4 3.357-4.5.45-.94.622-1.7.623-2.315v-.017c-.002-.882-.357-1.461-.747-1.831C34.788.41 33.846.13 32.724.13c-1.478 0-3.268.486-5 1.431M4.126 44.232c-1.488-.301-2.457-1.068-2.881-2.28-1.09-3.119 1.518-8.577 3.821-11.32.169-.202 4.128-5.028 3.693-11.937a61.379 61.379 0 0 0-.288-3.069c-.271-2.415-.467-4.16.43-5.168.819-.92 2.612-1.338 5.815-1.353 6.43-.03 8.969-2.688 11.009-4.824.816-.855 1.521-1.593 2.363-2.052 2.718-1.485 5.634-1.784 6.78-.697.872.827.461 2.242-.037 3.284-.951 1.988-2.154 3.215-3.215 4.298-1.475 1.505-2.64 2.694-2.05 5.003.116.452.25.91.384 1.369.938 3.207 1.824 6.236-3.086 8.442-1.152.518-2.21.933-3.141 1.299-3.885 1.524-6.45 2.531-9.201 8.337-.512 1.081-.962 2.101-1.397 3.088-2.076 4.703-3.431 7.776-7.206 7.776a9.087 9.087 0 0 1-1.793-.196"/>
        <linearGradient id="p" x1="0%" y1="50%" y2="50%">
            <stop offset="0%" stop-color="#3FD4E6"/>
            <stop offset="100%" stop-color="#5477FF"/>
        </linearGradient>
        <path id="r" d="M18.749 6.048c-1.11 3.888-3.442 9.68-10.836 15.07C1.173 26.03.217 42.816.18 43.528l.757.04c.01-.17.972-17.135 7.423-21.837 7.584-5.528 9.978-11.48 11.119-15.475C20.656 2.132 27.066.95 27.13.94l-.132-.748c-.283.05-6.942 1.274-8.25 5.856"/>
        <linearGradient id="s" x1="0%" x2="100.001%" y1="50%" y2="50%">
            <stop offset="0%" stop-color="#3FD4E6"/>
            <stop offset="100%" stop-color="#5477FF"/>
        </linearGradient>
        <path id="u" d="M20.128 14.674c-2.024 6.831-22.518 2.98-13.916 20.087 8.603 17.107-10.88 5.721-5.06 20.649 5.82 14.928.506 30.894 6.831 26.833 6.326-4.061 3.554-22.86 10.133-25.093 6.578-2.234 7.651-4.84 1.138-10.912-6.513-6.072 17.067-12.1 11.248-24.362-5.82-12.262.98-19.726-4.554-21.624A3.207 3.207 0 0 0 24.912.06c-3.616 0-2.92 8.325-4.784 14.614"/>
        <linearGradient id="v" x1="0%" y1="50%" y2="50%">
            <stop offset="0%" stop-color="#3FD4E6"/>
            <stop offset="100%" stop-color="#5477FF"/>
        </linearGradient>
        <path id="x" d="M.044.079l6.84 25.949h15.285L29.008.079z"/>
        <linearGradient id="y" x1="0%" y1="50%" y2="50%">
            <stop offset="0%" stop-color="#FF933F"/>
            <stop offset="100%" stop-color="#FFCD44"/>
        </linearGradient>
        <path id="A" d="M.044.079l6.84 25.949h7.067C13.951 2.906 29.008.079 29.008.079H.044z"/>
        <linearGradient id="B" x1="0%" y1="50%" y2="50%">
            <stop offset="0%" stop-color="#C87231"/>
            <stop offset="100%" stop-color="#FFCD44"/>
        </linearGradient>
        <path id="D" d="M37.114 1.484l-7.843 1.321-.232 7.318a37.244 37.244 0 0 0-8.81 5.514l-6.681-2.983-4.611 6.48-4.612 6.48 5.006 5.335a37.22 37.22 0 0 0-2.322 10.13L.172 43.698l1.32 7.843 1.322 7.843 7.318.232a37.217 37.217 0 0 0 5.513 8.81l-2.982 6.68 6.48 4.612 6.48 4.612 5.335-5.007a37.22 37.22 0 0 0 10.13 2.323l2.618 6.837 7.843-1.321 7.843-1.321.232-7.318a37.228 37.228 0 0 0 8.81-5.513l6.68 2.982 4.612-6.48 4.611-6.48-5.006-5.335a37.23 37.23 0 0 0 2.322-10.13l6.838-2.618-1.321-7.843-1.322-7.843-7.317-.232a37.236 37.236 0 0 0-5.514-8.81L76 13.54l-6.48-4.612-6.48-4.612-5.335 5.007A37.227 37.227 0 0 0 47.574 7L44.957.163l-7.843 1.321zm-4.09 58.727c-8.775-6.244-10.826-18.42-4.582-27.195 6.245-8.776 18.421-10.827 27.196-4.582 8.776 6.244 10.827 18.42 4.582 27.196-3.804 5.345-9.809 8.196-15.905 8.196a19.41 19.41 0 0 1-11.29-3.615z"/>
        <linearGradient id="E" x1="0%" y1="50%" y2="50%">
            <stop offset="0%" stop-color="#3FD4E6"/>
            <stop offset="100%" stop-color="#5477FF"/>
        </linearGradient>
        <path id="G" d="M1.49 1.316a4.32 4.32 0 0 0-.193 6.099 4.32 4.32 0 0 0 6.1.193 4.32 4.32 0 0 0 .191-6.1A4.303 4.303 0 0 0 4.441.15c-1.059 0-2.12.387-2.951 1.167m.667 5.292a3.139 3.139 0 0 1 .14-4.432 3.139 3.139 0 0 1 4.432.14 3.139 3.139 0 0 1-.14 4.432 3.125 3.125 0 0 1-2.146.848c-.836 0-1.67-.332-2.286-.988"/>
        <linearGradient id="H" x1="0%" x2="99.999%" y1="50%" y2="50%">
            <stop offset="0%" stop-color="#3FD4E6"/>
            <stop offset="100%" stop-color="#5477FF"/>
        </linearGradient>
    </defs>
    <g fill="none" fill-rule="evenodd">
        <path fill="#0072CE" fill-opacity=".2" d="M30.665 394.396c-29.323-25-37.332-48.804-24.028-71.415C26.594 289.065 164.28 286.9 239.37 298.135c75.09 11.235 107.565-163.612 220.895-120.35 75.553 28.84 82.08 103.053 19.579 222.638-283.06.069-427.165.069-432.313 0-5.149-.07-10.77-2.078-16.865-6.027z"/>
        <path fill="#E0E0E0" d="M423.929 212.913c-3.23-.221-6.594-.348-9.988-.332-.478 0-.96.002-1.446.006l-.018-1.92a148.288 148.288 0 0 1 11.583.33l-.131 1.916zm-34.277 1.373l-.254-1.903c3.897-.522 7.77-.93 11.509-1.213l.145 1.914c-3.703.281-7.538.685-11.4 1.202zm56.77 2.338a103.483 103.483 0 0 0-11.143-2.422l.307-1.895c3.932.636 7.751 1.466 11.35 2.467l-.513 1.85zm-205.35.206a956.767 956.767 0 0 1-11.3-2.288l.392-1.88c4.1.854 7.788 1.601 11.277 2.285l-.369 1.883zm126.018 1.606l-.432-1.87a264.9 264.9 0 0 1 11.318-2.357l.35 1.888a262.883 262.883 0 0 0-11.236 2.34zm-103.297 2.406a498.514 498.514 0 0 1-11.384-1.89l.336-1.89c3.904.693 7.72 1.327 11.34 1.883l-.292 1.897zm80.588 1.902l-.26-1.903c3.78-.517 7.586-1.138 11.316-1.847l.358 1.886a223.292 223.292 0 0 1-11.414 1.864zm-57.674.932a346.827 346.827 0 0 1-11.481-1.239l.237-1.905c3.871.482 7.712.896 11.417 1.232l-.173 1.912zm34.637 1.038l-.07-1.919c3.837-.138 7.689-.371 11.45-.692l.162 1.913c-3.792.323-7.675.558-11.542.698zm-11.56.15a274.092 274.092 0 0 1-11.552-.361l.1-1.918c3.862.202 7.721.322 11.47.359l-.019 1.92zm157.36.88c-2.951-1.97-6.31-3.773-9.984-5.36l.762-1.762c3.78 1.632 7.24 3.491 10.287 5.526l-1.066 1.596z"/>
        <g transform="translate(23.56 152.89)">
            <mask id="c" fill="#fff">
                <use xlink:href="#a"/>
            </mask>
            <path fill="url(#b)" d="M71.662 6.925l-.576 18.16a92.37 92.37 0 0 0-20.862 13.05l-16.58-7.4-23.563 33.118L22.503 77.09a92.311 92.311 0 0 0-5.494 23.983L.034 107.57l6.752 40.078 18.166.577a92.378 92.378 0 0 0 13.05 20.856l-7.4 16.58L63.72 209.23l13.238-12.423a92.068 92.068 0 0 0 11.09 3.374l.977.231 8.572-45.283-.844-.239a46.713 46.713 0 0 1-14.382-6.92c-21.088-15.01-26.037-44.38-11.031-65.467 15.007-21.09 44.377-26.039 65.467-11.03 14.799 10.529 22.242 28.883 18.963 46.758l-.163.889 44.714 11.016.206-.97a92.941 92.941 0 0 0 1.642-10.8l16.97-6.494-6.753-40.078-18.16-.576a92.537 92.537 0 0 0-13.05-20.862l7.4-16.58-33.118-23.563-13.237 12.422a92.305 92.305 0 0 0-23.987-5.494L111.74.167 71.662 6.925zM50.998 39.991a90.444 90.444 0 0 1 21.42-13.4l.549-.245.564-17.79 36.978-6.234 6.36 16.628.6.052a90.39 90.39 0 0 1 24.629 5.64l.561.216 12.967-12.168 30.557 21.74-7.25 16.24.387.46a90.615 90.615 0 0 1 13.4 21.42l.245.55 17.79.564 6.23 36.978-16.624 6.36-.051.6a91.049 91.049 0 0 1-1.46 10.195l-41.037-10.11c3.01-18.322-4.735-36.993-19.892-47.778-21.954-15.622-52.524-10.472-68.145 11.481-15.62 21.951-10.47 52.52 11.482 68.146a48.668 48.668 0 0 0 14.128 6.955l-7.873 41.586a90.195 90.195 0 0 1-10.433-3.275l-.561-.215-12.966 12.167-30.558-21.746 7.25-16.24-.387-.46a90.45 90.45 0 0 1-13.4-21.414l-.245-.55-17.794-.564-6.23-36.978 16.628-6.366.052-.6a90.38 90.38 0 0 1 5.64-24.622l.216-.562-12.168-12.966 21.74-30.557 16.24 7.25.46-.388z" mask="url(#c)"/>
        </g>
        <g transform="translate(24.52 164.17)">
            <mask id="f" fill="#fff">
                <use xlink:href="#d"/>
            </mask>
            <path fill="url(#e)" d="M141.484 12.465a90.49 90.49 0 0 0-10.05-3.192l-8.095 43.57a47.79 47.79 0 0 1 13.064 6.57c15.664 11.143 22.608 29.976 19.354 47.712l42.872 10.561a92.07 92.07 0 0 0 1.68-11.281l16.793-6.427-3.24-19.265-3.25-19.265-17.975-.569a91.631 91.631 0 0 0-13.54-21.647l7.326-16.406L154.583.17l-13.1 12.295zM49.419 27.978l-16.406-7.326L21.687 36.57 10.36 52.487l12.295 13.104a91.303 91.303 0 0 0-5.703 24.883L.151 96.906l3.25 19.265 3.244 19.264 17.976.569a91.472 91.472 0 0 0 13.544 21.642l-7.326 16.407 15.918 11.335 15.922 11.326 13.1-12.295a90.412 90.412 0 0 0 11.53 3.547l8.223-43.432a47.692 47.692 0 0 1-14.678-7.059C59.301 122.131 54.26 92.221 69.6 70.667A47.66 47.66 0 0 1 83.015 57.95L61.136 19.608a90.959 90.959 0 0 0-11.717 8.37z" mask="url(#f)"/>
        </g>
        <path fill="#8D8D8D" d="M260.46 330.495h15.051v-2.381h-15.05z"/>
        <path fill="#DE2050" d="M277.024 328.457h-18.076v-5.972c0-.168.137-.304.305-.304h17.466c.168 0 .305.136.305.304v5.972z"/>
        <path fill="#717070" d="M287.908 242.322l-4.19-1.664 14.703-25.46 8.881 2.6z"/>
        <path fill="#717070" d="M295.767 254.513l-4.14 1.786-7.909-15.692 5.288-.668z"/>
        <path fill="#717070" d="M291.623 256.3h5.993v-4.53h-5.993zM328.776 241.816l4.122-1.824-15.676-25.097-8.774 2.94z"/>
        <path fill="#717070" d="M321.392 254.3l4.205 1.626 7.3-15.986-5.31-.463z"/>
        <path fill="#717070" d="M319.615 256.267l5.987-.341-.175-4.527-5.986.342z"/>
        <path fill="#F8FAFA" d="M326.76 170.091c2.58-11.848-4.934-23.544-16.782-26.124L200.165 119.78c-11.849-2.58-23.545 4.934-26.125 16.782-2.58 11.849 4.934 23.545 16.783 26.125l109.813 24.187c11.848 2.58 23.544-4.934 26.124-16.783"/>
        <path stroke="#C8C9C9" stroke-width=".72" d="M326.76 170.091c2.58-11.848-4.934-23.544-16.782-26.124L200.165 119.78c-11.849-2.58-23.545 4.934-26.125 16.782-2.58 11.849 4.934 23.545 16.783 26.125l109.813 24.187c11.848 2.58 23.544-4.934 26.124-16.783z"/>
        <path fill="#FFF" d="M187.836 373.504h-53.685v-71.14a2.237 2.237 0 0 1 2.237-2.238h49.211a2.237 2.237 0 0 1 2.237 2.237v71.141z"/>
        <path stroke="#C8C9C9" stroke-width="1.44" d="M187.836 373.504h-53.685v-71.14a2.237 2.237 0 0 1 2.237-2.238h49.211a2.237 2.237 0 0 1 2.237 2.237v71.141z"/>
        <path fill="#FFF" d="M154.72 323.976c-14.766-3.228-23.956-18.005-20.323-32.676l38.389-155.004c2.921-11.797 14.703-19.125 26.576-16.53 11.874 2.596 19.523 14.172 17.255 26.112l-29.793 156.883c-2.82 14.849-17.338 24.443-32.104 21.215"/>
        <path stroke="#C8C9C9" stroke-width="1.44" d="M154.72 323.976c-14.766-3.228-23.956-18.005-20.323-32.676l38.389-155.004c2.921-11.797 14.703-19.125 26.576-16.53 11.874 2.596 19.523 14.172 17.255 26.112l-29.793 156.883c-2.82 14.849-17.338 24.443-32.104 21.215z"/>
        <path fill="#FFF" d="M209.905 146.793c-1.91 8.742-10.547 14.28-19.29 12.369-8.742-1.911-14.28-10.548-12.369-19.29 1.911-8.743 10.548-14.28 19.29-12.37 8.743 1.912 14.28 10.548 12.37 19.29"/>
        <path stroke="#C8C9C9" stroke-width="1.44" d="M209.905 146.793c-1.91 8.742-10.547 14.28-19.29 12.369-8.742-1.911-14.28-10.548-12.369-19.29 1.911-8.743 10.548-14.28 19.29-12.37 8.743 1.912 14.28 10.548 12.37 19.29z"/>
        <path fill="#C8C9C9" d="M187.9 136.07a1.072 1.072 0 1 1-2.095-.459 1.072 1.072 0 0 1 2.095.458M204.782 139.76a1.072 1.072 0 1 1-2.095-.458 1.072 1.072 0 0 1 2.095.458M185.44 147.324a1.072 1.072 0 1 1-2.095-.458 1.072 1.072 0 0 1 2.095.458M202.321 151.014a1.072 1.072 0 1 1-2.094-.458 1.072 1.072 0 0 1 2.094.458"/>
        <path fill="#FFF" d="M180.118 299.474c-2.325 10.635-12.831 17.372-23.466 15.046-10.635-2.324-17.372-12.83-15.047-23.466 2.325-10.635 12.831-17.371 23.466-15.046 10.635 2.324 17.372 12.83 15.047 23.466"/>
        <path stroke="#C8C9C9" stroke-width="1.44" d="M180.118 299.474c-2.325 10.635-12.831 17.372-23.466 15.046-10.635-2.324-17.372-12.83-15.047-23.466 2.325-10.635 12.831-17.371 23.466-15.046 10.635 2.324 17.372 12.83 15.047 23.466z"/>
        <path fill="#C8C9C9" d="M153.35 286.43a1.304 1.304 0 1 1-2.55-.558 1.304 1.304 0 0 1 2.55.557M173.885 290.918a1.304 1.304 0 1 1-2.548-.556 1.304 1.304 0 0 1 2.548.556M150.357 300.12a1.304 1.304 0 1 1-2.548-.557 1.304 1.304 0 0 1 2.548.557M170.892 304.609a1.304 1.304 0 1 1-2.548-.557 1.304 1.304 0 0 1 2.548.557M172.492 178.835l3.657.881c.448.108.57.307.461.755l-.903 3.752c-.108.449-.307.57-.755.462l-3.657-.88-.253 1.05 4.256 1.026a1.19 1.19 0 0 0 1.435-.878l1.146-4.76a1.19 1.19 0 0 0-.878-1.434l-4.256-1.025-.253 1.051zM172.699 201.748l-3.66-.882c-.448-.108-.569-.306-.461-.755l.904-3.752c.108-.448.306-.57.755-.462l3.659.882.253-1.051-4.258-1.026a1.189 1.189 0 0 0-1.435.877l-1.146 4.76c-.154.638.239 1.28.877 1.434l4.259 1.026.253-1.051zM171.004 208.785l.861-3.576a1.19 1.19 0 0 0-.877-1.434l-4.259-1.026-.253 1.051 3.659.882c.449.108.57.306.462.755l-.74 3.072 1.147.276zM165.685 214.793c-.448-.108-.57-.306-.462-.755l.904-3.751c.108-.45.306-.57.755-.462l1.904.459c.448.108.57.305.462.754l-.904 3.752c-.108.449-.306.57-.754.462l-1.905-.459zm3.685.777l1.146-4.759a1.19 1.19 0 0 0-.877-1.434l-3.103-.748a1.19 1.19 0 0 0-1.435.878l-1.146 4.759c-.154.638.239 1.28.877 1.434l3.103.748a1.19 1.19 0 0 0 1.435-.878zM166.678 226.746l.764-3.174a1.18 1.18 0 0 0-.036-.676c.163-.153.284-.353.34-.585l.765-3.175a1.19 1.19 0 0 0-.878-1.434l-4.256-1.025-.253 1.051 3.657.881c.448.108.57.306.461.755l-.522 2.167c-.108.449-.306.57-.754.462l-3.658-.88-.253 1.05 3.657.881c.449.108.57.307.462.755l-.522 2.167c-.108.449-.307.57-.755.462l-3.657-.88-.253 1.05 4.256 1.025a1.189 1.189 0 0 0 1.435-.877M162.258 245.093l.335-1.389-1.374-2.787.685-2.845 1.933.466.254-1.051-5.413-1.304-.253 1.051 2.32.559-.686 2.845-2.878 1.762-.335 1.39 3.61-2.158zM174.144 188.042c.448.108.57.306.461.755l-.337 1.402-.228.947-.338 1.403c-.097.399-.306.57-.645.488l-.02-.005c-.361-.087-.454-.302-.352-.728l.566-2.35.484-2.01.409.098zm-2.66.003c.108-.447.308-.568.753-.462l.351.084-.484 2.011-.687 2.853c-.16.659.015 1.22.628 1.368l1.368.33c.597.143 1.17-.302 1.314-.9l.46-1.907.228-.946.459-1.907a1.19 1.19 0 0 0-.878-1.434l-.66-.16-1.65-.397-.79-.19h-.003a1.19 1.19 0 0 0-1.434.877l-1.425 5.915 1.147.277 1.304-5.412zM164.089 229.785c.448.108.57.306.461.755l-.338 1.402-.228.947-.338 1.403c-.096.399-.305.57-.644.488l-.02-.005c-.361-.088-.455-.302-.352-.728l.566-2.35.484-2.01.409.098zm-2.66.003c.108-.447.308-.568.753-.463l.351.085-.484 2.011-.687 2.853c-.16.659.015 1.22.628 1.368l1.368.33c.597.143 1.17-.302 1.314-.9l.46-1.907.227-.946.46-1.907a1.188 1.188 0 0 0-.878-1.434l-.66-.16-1.65-.396-.79-.19-.003-.002a1.189 1.189 0 0 0-1.434.878l-1.425 5.915 1.147.277 1.303-5.412zM157.5 246.103c.096-.4.305-.57.644-.489l.194.047c.361.087.455.302.352.728l-1.05 4.36-1.19-.286 1.05-4.36zm3.242 5.283l1.358-5.635-1.147-.277-1.237 5.132c-.107.447-.307.568-.751.462l-.178-.042 1.172-4.864c.158-.659-.016-1.22-.628-1.368l-1.542-.371c-.598-.144-1.171.301-1.315.9l-1.425 5.915 4.259 1.026a1.189 1.189 0 0 0 1.434-.878z"/>
        <path fill="#8D8D8D" d="M127.688 377.719h66.611v-6.41h-66.611z"/>
        <path fill="#A4A4A4" d="M121.62 387.126h78.747v-10.057H121.62z"/>
        <path fill="#FFF" d="M328.715 163.08c-.302-10.934-9.252-19.642-20.19-19.642-10.939 0-19.89 8.708-20.19 19.642l1.088 54.54h38.203l1.089-54.54z"/>
        <path stroke="#C8C9C9" stroke-width=".72" d="M328.715 163.08c-.302-10.934-9.252-19.642-20.19-19.642-10.939 0-19.89 8.708-20.19 19.642l1.088 54.54h38.203l1.089-54.54z"/>
        <g>
            <path fill="#FFF" d="M322.99 165.174c0 8.054-6.53 14.583-14.584 14.583-8.054 0-14.583-6.529-14.583-14.583s6.529-14.583 14.583-14.583 14.583 6.529 14.583 14.583"/>
            <path stroke="#C8C9C9" stroke-width="1.44" d="M322.99 165.174c0 8.054-6.53 14.583-14.584 14.583-8.054 0-14.583-6.529-14.583-14.583s6.529-14.583 14.583-14.583 14.583 6.529 14.583 14.583z"/>
            <path fill="#C8C9C9" d="M301.58 159.975a.965.965 0 1 1-1.93 0 .965.965 0 0 1 1.93 0M317.132 159.975a.965.965 0 1 1-1.93 0 .965.965 0 0 1 1.93 0M301.58 170.344a.965.965 0 1 1-1.93 0 .965.965 0 0 1 1.93 0M317.132 170.344a.965.965 0 1 1-1.93 0 .965.965 0 0 1 1.93 0"/>
        </g>
        <path fill="#C8C9C9" d="M289.423 222.903h38.217v-5.282h-38.217z"/>
        <path fill="#8D8D8D" d="M289.423 224.582h38.217v-2.402h-38.217z"/>
        <path fill="#F5F5F5" d="M304.725 384.206h-95.83a.618.618 0 0 1-.618-.618v-42.674c0-.342.277-.618.618-.618h95.83c.341 0 .617.276.617.618v42.674a.617.617 0 0 1-.617.618"/>
        <path fill="#2F302F" d="M301.845 381.326h-90.07a.618.618 0 0 1-.618-.618v-36.914c0-.342.277-.618.618-.618h90.07c.341 0 .617.276.617.618v36.914a.618.618 0 0 1-.617.618"/>
        <g transform="translate(295.72 188.41)">
            <mask id="i" fill="#fff">
                <use xlink:href="#g"/>
            </mask>
            <path fill="url(#h)" d="M.168 12.809c0 6.97 5.67 12.64 12.64 12.64 6.97 0 12.64-5.67 12.64-12.64 0-6.97-5.67-12.64-12.64-12.64C5.838.17.168 5.84.168 12.81m3.456 0c0-5.065 4.12-9.186 9.184-9.186 5.064 0 9.184 4.12 9.184 9.186 0 5.065-4.12 9.186-9.184 9.186-5.064 0-9.184-4.121-9.184-9.186" mask="url(#i)"/>
        </g>
        <g transform="translate(13 .01)">
            <path stroke="#196BB4" stroke-width="2.88" d="M281.53 366.77a7.41 7.41 0 1 1-14.818 0 7.41 7.41 0 0 1 14.818 0z"/>
            <mask id="k" fill="#fff">
                <use xlink:href="#j"/>
            </mask>
            <path fill="#7A7A7A" d="M205.21 351.232h44.942v-.836H205.21zM205.21 354.786h44.942v-.836H205.21zM205.21 358.34h44.942v-.837H205.21zM205.21 361.893h44.942v-.836H205.21zM205.21 365.446h44.942v-.836H205.21zM205.21 369h44.942v-.836H205.21zM205.21 372.553h44.942v-.836H205.21z" mask="url(#k)"/>
            <path fill="#E4E4E4" d="M269.247 340.286h-28.522a.092.092 0 0 1-.093-.092v-8.2c0-.051.042-.093.093-.093h28.522c.051 0 .092.042.092.093v8.2a.092.092 0 0 1-.092.092" mask="url(#k)"/>
            <path fill="#C8C9C9" d="M240.632 334.647h28.707v-.602h-28.707zM244.987 331.901h19.998v-1.834h-19.998z" mask="url(#k)"/>
            <path fill="#8D8D8D" d="M71.5 381.316h4.598v-92.261H71.5z" mask="url(#k)"/>
            <path fill="#C8C9C9" d="M44.116 386.396h59.365v-6.457H44.116zM60.212 289.055h27.174v-4.219H60.212z" mask="url(#k)"/>
            <path fill="#2F302F" d="M112.662 284.836H36.048a.389.389 0 0 1-.389-.389V235.18c0-.215.175-.389.39-.389h76.613c.214 0 .388.174.388.39v49.267a.389.389 0 0 1-.388.39" mask="url(#k)"/>
            <path fill="#323948" d="M107.06 281.956H41.65a.23.23 0 0 1-.23-.23V237.9a.23.23 0 0 1 .23-.23h65.41a.23.23 0 0 1 .23.23v43.825a.23.23 0 0 1-.23.23" mask="url(#k)"/>
            <path fill="#C8C9C9" d="M58.536 252.613v2.981c0 .83.673 1.504 1.503 1.504h3.655v-.806h-3.655a.698.698 0 0 1-.697-.698v-2.98c0-.386.313-.698.697-.698h3.655v-.806h-3.655c-.83 0-1.503.673-1.503 1.503M89.41 251.11h-.805v2.49a.698.698 0 0 1-.698.697h-2.981a.698.698 0 0 1-.697-.697v-2.49h-.807v2.49c0 .83.674 1.503 1.504 1.503h2.981a1.5 1.5 0 0 0 .698-.171v.578a.698.698 0 0 1-.698.698h-4.003v.806h4.003c.83 0 1.504-.673 1.504-1.504v-1.594h-.034c.022-.102.034-.208.034-.316v-2.49zM75.403 251.11h-2.742c-.83 0-1.503.673-1.503 1.503v4.401h.805v-4.4c0-.386.313-.698.698-.698h2.742c.385 0 .698.312.698.697v4.401h.806v-4.4c0-.831-.673-1.504-1.504-1.504M69.489 255.594a.698.698 0 0 1-.697.698h-2.599a.698.698 0 0 1-.698-.698v-2.98c0-.385.313-.698.698-.698h2.599c.384 0 .697.313.697.697v2.981zm-.697-4.484h-2.599c-.83 0-1.504.673-1.504 1.503v2.981c0 .83.673 1.504 1.504 1.504h2.599c.83 0 1.503-.673 1.503-1.504v-2.98c0-.831-.673-1.504-1.503-1.504zM77.697 251.916h1.987v5.098h.806v-5.098h1.986v-.806h-4.779z" mask="url(#k)"/>
            <path fill="#444D5F" d="M41.42 271.591h21.7v-10.452h-21.7zM63.504 271.591h21.701v-10.452h-21.7zM85.59 271.591h21.7v-10.452h-21.7z" mask="url(#k)"/>
            <path stroke="#8B8B8B" stroke-width=".72" d="M39.315 264.207h-1.302a.06.06 0 0 1-.06-.06v-8.41a.06.06 0 0 1 .06-.058h1.302a.06.06 0 0 1 .06.059v8.41a.06.06 0 0 1-.06.059z" mask="url(#k)"/>
            <path fill="#8B8B8B" d="M37.953 251.9h1.422v-1.421h-1.422zM37.953 269.406h1.422v-1.421h-1.422z" mask="url(#k)"/>
        </g>
        <g transform="translate(457.72 296.89)">
            <mask id="n" fill="#fff">
                <use xlink:href="#l"/>
            </mask>
            <path fill="url(#m)" d="M3.61.352C-8.027 5.918 13.986 15.533 6.395 28.943c-7.59 13.41 2.937 12.92 7.306 25.399 3.009 8.59-12.366 16.096-2.752 22.422 9.615 6.325 18.938 26.77 18.938 26.77 10.588 8.299 1.467-11.898 8.504-28.831 7.037-16.933-14.285-7.807-2.961-28.808 11.323-21-13.221-7.21-11.83-27.326.436-6.299-1.81-6.074-4.885-5.85-2.538.186-5.641.371-8.272-3.105 0 0-2.948-9.43-6.115-9.43-.238 0-.477.054-.716.168" mask="url(#n)"/>
        </g>
        <path fill="#FFF" d="M490.959 392.729c-4.59-3.228-9.96-25.721-10.282-39.119-.163-6.862-2.192-9.722-3.982-12.244-1.711-2.411-3.188-4.494-2.328-9.275 1.645-9.138-2.68-13.082-2.723-13.121l.5-.57c.193.168 4.697 4.236 2.97 13.825-.804 4.468.522 6.336 2.2 8.702 1.761 2.482 3.953 5.57 4.122 12.665.344 14.378 5.836 35.616 9.96 38.516l-.437.62z"/>
        <g transform="translate(486.76 349.21)">
            <mask id="q" fill="#fff">
                <use xlink:href="#o"/>
            </mask>
            <path fill="url(#p)" d="M27.724 1.562c-.946.517-1.724 1.331-2.548 2.195-1.94 2.032-4.356 4.56-10.464 4.59-3.483.016-5.39.497-6.378 1.607-1.122 1.26-.91 3.146-.618 5.757.102.903.216 1.926.286 3.032.415 6.597-3.48 11.356-3.518 11.402-2.326 2.77-5.193 8.519-3.956 12.057.519 1.483 1.679 2.416 3.448 2.774.704.142 1.348.21 1.94.21 4.272 0 5.836-3.543 7.903-8.227.433-.983.881-1.998 1.389-3.07 2.622-5.534 4.944-6.445 8.792-7.955.94-.37 2.006-.788 3.176-1.313 5.512-2.478 4.444-6.128 3.503-9.349-.132-.45-.263-.9-.377-1.344-.485-1.894.447-2.844 1.856-4.283 1.048-1.069 2.352-2.4 3.357-4.5.45-.94.622-1.7.623-2.315v-.017c-.002-.882-.357-1.461-.747-1.831C34.788.41 33.846.13 32.724.13c-1.478 0-3.268.486-5 1.431M4.126 44.232c-1.488-.301-2.457-1.068-2.881-2.28-1.09-3.119 1.518-8.577 3.821-11.32.169-.202 4.128-5.028 3.693-11.937a61.379 61.379 0 0 0-.288-3.069c-.271-2.415-.467-4.16.43-5.168.819-.92 2.612-1.338 5.815-1.353 6.43-.03 8.969-2.688 11.009-4.824.816-.855 1.521-1.593 2.363-2.052 2.718-1.485 5.634-1.784 6.78-.697.872.827.461 2.242-.037 3.284-.951 1.988-2.154 3.215-3.215 4.298-1.475 1.505-2.64 2.694-2.05 5.003.116.452.25.91.384 1.369.938 3.207 1.824 6.236-3.086 8.442-1.152.518-2.21.933-3.141 1.299-3.885 1.524-6.45 2.531-9.201 8.337-.512 1.081-.962 2.101-1.397 3.088-2.076 4.703-3.431 7.776-7.206 7.776a9.087 9.087 0 0 1-1.793-.196" mask="url(#q)"/>
        </g>
        <g transform="translate(489.88 355.21)">
            <mask id="t" fill="#fff">
                <use xlink:href="#r"/>
            </mask>
            <path fill="url(#s)" d="M18.749 6.048c-1.11 3.888-3.442 9.68-10.836 15.07C1.173 26.03.217 42.816.18 43.528l.757.04c.01-.17.972-17.135 7.423-21.837 7.584-5.528 9.978-11.48 11.119-15.475C20.656 2.132 27.066.95 27.13.94l-.132-.748c-.283.05-6.942 1.274-8.25 5.856" mask="url(#t)"/>
        </g>
        <g transform="translate(480.28 313.93)">
            <mask id="w" fill="#fff">
                <use xlink:href="#u"/>
            </mask>
            <path fill="url(#v)" d="M20.128 14.674c-2.024 6.831-22.518 2.98-13.916 20.087 8.603 17.107-10.88 5.721-5.06 20.649 5.82 14.928.506 30.894 6.831 26.833 6.326-4.061 3.554-22.86 10.133-25.093 6.578-2.234 7.651-4.84 1.138-10.912-6.513-6.072 17.067-12.1 11.248-24.362-5.82-12.262.98-19.726-4.554-21.624A3.207 3.207 0 0 0 24.912.06c-3.616 0-2.92 8.325-4.784 14.614" mask="url(#w)"/>
        </g>
        <path fill="#FFF" d="M491.198 395.457c-.602-2.556-5.747-25.045-.946-27.764 4.23-2.396 4.126-11.715 3.466-20.515-.584-7.79 9.42-11.431 9.847-11.582l.254.715c-.1.035-9.885 3.6-9.344 10.81.678 9.037.75 18.628-3.85 21.233-3.645 2.064-.289 20.138 1.312 26.928l-.739.175z"/>
        <g transform="translate(473.08 387.37)">
            <mask id="z" fill="#fff">
                <use xlink:href="#x"/>
            </mask>
            <path fill="url(#y)" d="M.044.079l6.84 25.949h15.285L29.008.079z" mask="url(#z)"/>
        </g>
        <g transform="translate(473.08 387.37)">
            <mask id="C" fill="#fff">
                <use xlink:href="#A"/>
            </mask>
            <path fill="url(#B)" d="M.044.079l6.84 25.949h7.067C13.951 2.906 29.008.079 29.008.079H.044z" mask="url(#C)"/>
        </g>
        <g transform="translate(85 55.69)">
            <mask id="F" fill="#fff">
                <use xlink:href="#D"/>
            </mask>
            <path fill="url(#E)" d="M37.114 1.484l-7.843 1.321-.232 7.318a37.244 37.244 0 0 0-8.81 5.514l-6.681-2.983-4.611 6.48-4.612 6.48 5.006 5.335a37.22 37.22 0 0 0-2.322 10.13L.172 43.698l1.32 7.843 1.322 7.843 7.318.232a37.217 37.217 0 0 0 5.513 8.81l-2.982 6.68 6.48 4.612 6.48 4.612 5.335-5.007a37.22 37.22 0 0 0 10.13 2.323l2.618 6.837 7.843-1.321 7.843-1.321.232-7.318a37.228 37.228 0 0 0 8.81-5.513l6.68 2.982 4.612-6.48 4.611-6.48-5.006-5.335a37.23 37.23 0 0 0 2.322-10.13l6.838-2.618-1.321-7.843-1.322-7.843-7.317-.232a37.236 37.236 0 0 0-5.514-8.81L76 13.54l-6.48-4.612-6.48-4.612-5.335 5.007A37.227 37.227 0 0 0 47.574 7L44.957.163l-7.843 1.321zm-4.09 58.727c-8.775-6.244-10.826-18.42-4.582-27.195 6.245-8.776 18.421-10.827 27.196-4.582 8.776 6.244 10.827 18.42 4.582 27.196-3.804 5.345-9.809 8.196-15.905 8.196a19.41 19.41 0 0 1-11.29-3.615z" mask="url(#F)"/>
        </g>
        <g>
            <path fill="#98A6B1" d="M414.817 93.7l-26.174-28.845 1.138-1.032 26.174 28.845z"/>
            <path fill="#385369" d="M389.212 65.238a3.822 3.822 0 0 0 3.817-3.817h-.899a2.921 2.921 0 0 1-2.918 2.918 2.921 2.921 0 0 1-2.918-2.918 2.921 2.921 0 0 1 2.918-2.918h.45v-46.21h-.9V57.63a3.823 3.823 0 0 0-3.367 3.79 3.822 3.822 0 0 0 3.817 3.818"/>
            <path fill="#98A6B1" d="M388.177 57.435h2.15V35.613h-2.15zM363.646 93.7l-1.137-1.032 26.703-29.477 1.055.95z"/>
            <path fill="#047BF8" d="M376.598 109.953a4.234 4.234 0 0 1-.397-1.07 4.283 4.283 0 0 1 .129-2.285c.061-.18.134-.354.22-.523.12-.235.263-.459.423-.669a4.68 4.68 0 0 1 .372-.413 4.126 4.126 0 0 1 .843-.64 4.153 4.153 0 0 1 1.358-.47 4.504 4.504 0 0 1 .576-.05h17.956c.378 0 .74-.09 1.08-.235a2.999 2.999 0 0 0 1.525-1.47c.164-.34.263-.709.289-1.084V90.647a3.137 3.137 0 0 1 .899-2.195 3.023 3.023 0 0 1 2.156-.91h12.538c-3.34-6.777-10.292-11.452-18.362-11.452-6.999 0-13.171 3.512-16.873 8.863a15.728 15.728 0 0 0-5.811-1.118c-8.722 0-15.792 7.07-15.792 15.792 0 .405.03.803.06 1.2-8.989.987-15.985 8.6-15.985 17.852 0 9.75 7.77 17.667 17.453 17.94v.027h38.04l-22.003-25.754c.006.007-.508-.594-.694-.94"/>
            <path fill="#047BF8" d="M437.62 116.136c0-10.802-8.355-19.633-18.952-20.432 0-.01-.003-.02-.003-.032h-8.406c-.833 0-1.405.713-1.405 1.524v10.1c-.003 2.543-2.043 4.606-4.541 4.606h-12.255l25.24 24.734c11.24-.101 20.323-9.236 20.323-20.5"/>
            <path fill="#FFF" d="M404.313 111.902c2.498 0 4.538-2.063 4.541-4.605v-10.1c0-.812.572-1.524 1.405-1.524h8.406a20.423 20.423 0 0 0-2.1-8.13h-12.538a3.021 3.021 0 0 0-2.156.91 3.137 3.137 0 0 0-.899 2.194v10.397a2.965 2.965 0 0 1-.289 1.083 3 3 0 0 1-1.525 1.47c-.34.147-.702.237-1.08.237H380.12a4.497 4.497 0 0 0-.575.05 4.023 4.023 0 0 0-1.779.745c-.148.112-.29.231-.422.364a4.605 4.605 0 0 0-.372.414c-.16.21-.302.433-.422.668-.087.169-.16.344-.222.523a4.3 4.3 0 0 0-.227 1.416 4.247 4.247 0 0 0 .496 1.938c.187.346.7.947.694.94l22.003 25.754h17.816c.063 0 .124-.01.186-.01l-25.239-24.734h12.255z"/>
            <path fill="#FB5" d="M379.173 353.485h61.293l-19.318 59.324 1.807.588 20.128-61.812h-65.29l-19.935 61.224 1.806.588z"/>
            <path fill="#FB5" d="M400.034 412.809l-19.318-59.324h61.293l19.509 59.912 1.806-.588-19.936-61.224H378.1l20.128 61.812z"/>
            <path fill="#FB5" d="M373.47 372.165h75.02v-1.9h-75.02zM365.742 392.793h89.756v-1.9h-89.756z"/>
            <path fill="#E09E7F" d="M443.122 235.744s.433-1.486-.23-2.07c-.563-.497-.932-1.546-1.046-1.87-.153-.431-1.115-1.581-.573-1.78.543-.197 1.679 1.82 2.001 2.196.323.376.688-1.808 1.069-2.155.381-.347 3.964.463 3.54 1.933-.424 1.47-1.847 2.76-1.87 3.034-.024.273-.266 1.082-.266 1.082l-2.625-.37z"/>
            <path fill="#E09E7F" d="M444.163 230.385s1.597-4.415 1.95-4.62c.353-.205.586-.104.454.315-.132.42-1.42 4.31-1.42 4.31s2.769-4.907 3.02-5.139c.149-.135.613.033.563.264-.05.23-2.515 5.251-2.515 5.251s2.593-4.577 2.862-4.707c.235-.114.622.147.453.5-.169.352-2.335 4.736-2.335 4.736s2.097-3.213 2.389-3.189c.179.014.587.141.02.953-.567.812-1.703 2.868-1.703 2.868l-3.738-1.542zM381.525 275.838s-1.416.625-2.083.044c-.566-.493-1.654-.722-1.99-.793-.447-.095-1.713-.899-1.839-.335-.125.564 2.024 1.426 2.439 1.697.415.27-1.703.918-1.997 1.341-.294.423.978 3.87 2.38 3.257s2.495-2.193 2.763-2.252c.268-.058 1.038-.405 1.038-.405l-.71-2.554z"/>
            <path fill="#E09E7F" d="M376.349 277.572s-4.168 2.161-4.325 2.538c-.157.376-.027.595.371.41.398-.187 4.087-1.973 4.087-1.973s-4.502 3.387-4.699 3.668c-.114.164.113.602.336.522.222-.08 4.876-3.18 4.876-3.18s-4.198 3.17-4.292 3.452c-.082.248.227.599.555.385.327-.213 4.39-2.935 4.39-2.935s-2.91 2.499-2.849 2.786c.038.175.217.563.948-.105.73-.669 2.62-2.064 2.62-2.064l-2.018-3.504z"/>
            <path fill="#323657" d="M380.032 275.912l2.231 2.75s14.358-5.933 16.554-7.991c0 0 .582-.224 3.553-2.58v-.001a61.82 61.82 0 0 1 1.826-1.399l.387-.345a.009.009 0 0 0 .002-.002l3.964-3.54s7.2-3.824 4.266-7.955c0 0-1.221-1.103-3.095-.212-1.873.89-4.585 3.231-5.227 3.848-.642.614-4.804 4.164-5.027 4.39-.83.842-3.659 3.362-5.118 4.461-2.573 1.94-14.316 8.576-14.316 8.576"/>
            <path fill="#EEA987" d="M421.094 246.716l-.003.004a17.141 17.141 0 0 1-1.952 3.222c-2.539 3.258-8.46 3.338-8.547-5.606-.016-1.694.195-3.068.535-4.182 1.212-3.97 4.06-4.63 4.06-4.63 2.104-.116 5.787.405 7.014 3.145.871 1.946.24 5.173-1.107 8.047"/>
            <path fill="#3A1507" d="M421.094 246.716l-.003.004s-.303.081-1.396-2.127c-.22-.443-.388-.127-.484-.322l-1.741-.68s1.722-2.88-.531-3.68c-2.298-.815-5.812.243-5.812.243.752-7.104 4.06-4.63 4.06-4.63 2.104-.116 6.604.01 7.831 2.751.871 1.946-.576 5.567-1.924 8.44"/>
            <path fill="#EEA987" d="M418.857 242.932c.13-.598 1.31-1.113 1.812.172s-1.177 2.648-1.62 2.366c-.442-.282-.407-1.548-.192-2.538"/>
            <path fill="#2E2626" d="M396.212 346.973s-2.442 1.995-4.496 2.44c-2.054.445-3.132 1.495-3.147 2.715-.016 1.219 5.91 2.022 8.26.793 3.509-1.834 3.866-1.281 4.255-2.198.388-.917.076-3.343.101-3.635.031-.36-4.973-.115-4.973-.115"/>
            <path fill="#2E2626" d="M396.38 346.31s-.268.995-.228 1.016c.04.021 4.629.535 4.49-.263-.113-.648-.274-1.352-.274-1.352l-3.989.598zM425.403 348.571s-1.52 2.301-3.449 2.764c-1.901.456-2.603 1.18-2.696 2.328-.093 1.148 4.483 2.65 7.699.634 2.112-1.324 2.9-1.249 3.326-2.09.425-.842.103-3.213.145-3.487.053-.337-5.025-.149-5.025-.149"/>
            <path fill="#2F6B8C" d="M425.914 347.733s-.095.97-.06.991c.037.023 4.274.772 4.248.008-.02-.607-.268-1.361-.268-1.361l-3.92.362z"/>
            <path fill="#047BF8" d="M408.419 289.298s-5.757 14.282-7.413 19.132c-2.178 6.381-3.377 12.003-3.651 15.063-.345 3.847-1.695 22.005-1.936 23.13-.242 1.125 6.462.748 6.462.748s3.772-22.897 4.798-26.995c.957-3.815 10.01-21.125 10.883-20.083.873 1.041 3.772 18.76 4.418 21.769.646 3.01 2.378 26.699 2.378 26.699s5.884.943 7.069 0c0 0-.928-21.124-1.34-26.766-.157-2.15 1.36-25.74-2.276-35.254-1.921-5.028-19.392 2.557-19.392 2.557"/>
            <path fill="#323657" d="M414.633 253.435s-4.981 1.023-5.628 1.596c-.701.61-2.102 6.772-2.176 8.434-.074 1.662.354 8.51 1.056 11.096.701 2.585-.621 13.345-1.065 16.928 0 0 8.637 3.924 23.239.865 0 0-2.565-11.137-2.134-14.68.553-4.538 2.029-14.476 2.029-14.476s1.34-9.469.104-9.236c-4.048.764-9.276-.527-9.276-.527h-6.149z"/>
            <path fill="#EEA886" d="M413.518 254.59s1.528 1.148 6.64-1.105c0 0-.509-2.784.495-6.058 1.002-3.274-6.593 3.413-6.593 3.413.083.057.1.385.052.841l-.01.09c-.038.33-.107.717-.206 1.116-.011.049-.024.097-.037.147-.287 1.095-.341.6-.341 1.555"/>
            <path fill="#A77860" d="M413.896 252.887h.001c3.663.47 5.662-3.477 5.72-3.593-2.508 3.655-5.515 2.468-5.515 2.468-.037.33-.107.726-.206 1.125"/>
            <path fill="#EEA886" d="M413.539 253.672s-1.171 1.742.461 2.039c1.633.296 4.965-.066 6.782-2.276 0 0-4.785-.919-7.243.237"/>
            <path fill="#323657" d="M421.964 262.817c-.519-1.07.792-3.862 3.014-5.813 1.758-1.543 3.634-2.502 4.55-2.844.915-.343 7.165-2.357 7.467-3.14.383-.99 2.042-5.853 2.177-6.278.268-.848 3.388-10.47 3.388-10.47l3.887.891s-2.899 13.912-3.26 15.694c-.238 1.175-.438 3.25-3.055 4.92-2.66 1.697-8.49 6.004-9.075 6.232-.587.227-6.784 5.575-9.093.808"/>
            <path fill="#2F302F" d="M462.944 240.622l-38.62-17.124a.388.388 0 0 1-.198-.513l10.961-24.723a.388.388 0 0 1 .513-.198l38.621 17.123a.389.389 0 0 1 .198.513l-10.962 24.724a.39.39 0 0 1-.513.198"/>
            <path fill="#323948" d="M460.81 237.924l-33.055-14.656a.23.23 0 0 1-.117-.304l9.792-22.086a.23.23 0 0 1 .304-.117l33.056 14.656a.23.23 0 0 1 .117.304l-9.792 22.086a.23.23 0 0 1-.304.117"/>
            <path fill="#C8C9C9" d="M442.855 212.119l-.672 1.515a.836.836 0 0 0 .426 1.103l1.857.823.182-.41-1.858-.823a.388.388 0 0 1-.197-.512l.672-1.515a.388.388 0 0 1 .511-.197l1.857.824.182-.41-1.857-.824a.836.836 0 0 0-1.103.426M458.885 218.312l-.41-.182-.56 1.266a.388.388 0 0 1-.512.197l-1.515-.672a.388.388 0 0 1-.198-.512l.562-1.265-.41-.182-.561 1.266a.836.836 0 0 0 .425 1.103l1.515.671a.837.837 0 0 0 .393.07l-.13.295a.388.388 0 0 1-.512.197l-2.034-.902-.182.41 2.034.902a.836.836 0 0 0 1.103-.426l.36-.81-.017-.007a.824.824 0 0 0 .088-.154l.561-1.265zM451.766 215.155l-1.394-.617a.836.836 0 0 0-1.102.425l-.992 2.237.41.181.992-2.237a.388.388 0 0 1 .511-.197l1.394.618a.387.387 0 0 1 .197.512l-.992 2.236.41.182.992-2.237a.836.836 0 0 0-.426-1.103M447.75 216.102a.388.388 0 0 1-.512.197l-.222-.098-.572-.254-.526-.233a.388.388 0 0 1-.198-.512l.672-1.515a.388.388 0 0 1 .512-.197l.526.233.572.254.223.098a.388.388 0 0 1 .197.512l-.672 1.515zm.656-2.436l-.222-.1-.573-.253-.526-.233a.836.836 0 0 0-1.102.425l-.672 1.516a.836.836 0 0 0 .425 1.102l.526.234.573.253.222.099a.836.836 0 0 0 1.103-.425l.672-1.516a.836.836 0 0 0-.426-1.102zM452.75 216.082l1.01.448-1.149 2.59.41.182 1.149-2.59 1.01.447.18-.41-2.428-1.077z"/>
            <path fill="#444D5F" d="M440.909 222.797l-11.029-4.89 2.355-5.312 11.029 4.89zM452.133 227.773l-11.029-4.89 2.355-5.312 11.029 4.89zM463.357 232.75l-11.029-4.89 2.355-5.312 11.03 4.89z"/>
            <path stroke="#8B8B8B" stroke-width=".5" d="M430.45 213.67l-.614-.273a.06.06 0 0 1-.03-.078l1.874-4.226a.06.06 0 0 1 .078-.03l.614.272a.06.06 0 0 1 .03.078l-1.873 4.226a.06.06 0 0 1-.079.03z"/>
            <path fill="#8B8B8B" d="M433.278 207.439l-.723-.32.32-.723.723.32zM429.333 216.336l-.722-.32.32-.723.722.32z"/>
            <path fill="#E09E7F" d="M442.893 233.674c-.564-.497-.933-1.546-1.047-1.87-.153-.431-1.115-1.581-.573-1.78.543-.197 1.679 1.82 2.001 2.196l-.381 1.454z"/>
            <path fill="#B6FAFC" d="M259.206 77.097c-7.093-2.058-14.538 2.039-16.596 9.132a13.375 13.375 0 0 0 2.65 12.396l.111.13.025.17c.35 2.393.671 5.937.217 9.228l-.008.045c-.26 1.196.051 2.446.875 3.521.846 1.104 2.126 1.89 3.602 2.208 3.012.653 5.904-.855 6.447-3.362l.005-.022.006-.021c.73-2.45 2.007-5.128 3.795-7.96l.1-.16.175-.073a13.338 13.338 0 0 0 7.728-8.636c2.058-7.093-2.038-14.538-9.132-16.596m-9.913 37.86c-1.527-.442-2.848-1.321-3.76-2.512-1.035-1.35-1.425-2.94-1.1-4.477.42-3.072.134-6.397-.194-8.704a14.566 14.566 0 0 1-2.775-13.367c2.241-7.726 10.35-12.187 18.075-9.946 7.725 2.24 12.187 10.35 9.946 18.075a14.525 14.525 0 0 1-8.24 9.33c-1.673 2.674-2.868 5.191-3.554 7.485-.695 3.136-4.216 5.043-7.862 4.253a7.931 7.931 0 0 1-.536-.136"/>
            <path fill="#B6FAFC" d="M247.667 109.534l1.392-15.951 2.682 3.363 2.48-1.81 1.3 2.459 3.57-1.933-5.112 15.197-1.131-.38 4.145-12.324-1.965 1.063-1.218-2.305-2.29 1.672-1.532-1.922-1.132 12.975zM254.3 118.84l-10.112-2.191.883-4.075 10.113 2.191z"/>
            <path fill="#B6FAFC" d="M256.29 117.514l-13.364-2.896 1.421-6.56 13.365 2.896zM27.969 186.683l-.722-.248 6.047-17.603 13.51-3.741 4.649-19.298 10.404-4.736 2.17-14.989.754.11-2.229 15.4-10.445 4.756-4.666 19.372-13.556 3.754z"/>
            <path fill="#FFF" d="M48.682 164.093a2.034 2.034 0 1 1-3.119 2.61 2.034 2.034 0 0 1 3.12-2.61"/>
            <path fill="#B6FAFC" d="M46.062 164.131a1.654 1.654 0 0 0-.207 2.328c.585.699 1.63.792 2.328.207.699-.585.792-1.63.207-2.328a1.654 1.654 0 0 0-2.328-.207m2.61 3.12a2.417 2.417 0 0 1-3.401-.302 2.418 2.418 0 0 1 .302-3.403 2.418 2.418 0 0 1 3.402.303 2.418 2.418 0 0 1-.303 3.402"/>
            <path fill="#FFF" d="M53.396 144.874a2.034 2.034 0 1 1-3.12 2.61 2.034 2.034 0 0 1 3.12-2.61"/>
            <path fill="#B6FAFC" d="M50.775 144.912a1.654 1.654 0 0 0-.206 2.327 1.654 1.654 0 0 0 2.328.208c.698-.585.791-1.63.206-2.328a1.654 1.654 0 0 0-2.328-.207m2.61 3.12a2.418 2.418 0 0 1-3.401-.303 2.418 2.418 0 0 1 .302-3.402 2.418 2.418 0 0 1 3.402.302 2.418 2.418 0 0 1-.302 3.402"/>
            <path fill="#FFF" d="M63.638 140.008a2.034 2.034 0 1 1-3.12 2.61 2.034 2.034 0 0 1 3.12-2.61"/>
            <path fill="#B6FAFC" d="M61.018 140.046a1.654 1.654 0 0 0-.207 2.328 1.654 1.654 0 0 0 2.327.206c.7-.584.792-1.629.207-2.328a1.654 1.654 0 0 0-2.327-.206m2.61 3.12a2.418 2.418 0 0 1-3.402-.303 2.418 2.418 0 0 1 .302-3.402 2.418 2.418 0 0 1 3.402.302 2.418 2.418 0 0 1-.302 3.402"/>
            <path fill="#FFF" d="M35.227 168.013a2.033 2.033 0 1 1-3.119 2.61 2.033 2.033 0 0 1 3.119-2.61"/>
            <path fill="#B6FAFC" d="M32.607 168.05a1.654 1.654 0 0 0-.207 2.328 1.654 1.654 0 0 0 2.328.207c.699-.584.791-1.629.207-2.328a1.654 1.654 0 0 0-2.328-.206m2.61 3.12a2.417 2.417 0 0 1-3.402-.303 2.418 2.418 0 0 1 .302-3.402 2.418 2.418 0 0 1 3.403.302 2.418 2.418 0 0 1-.303 3.402M457.787 169.21h32.727v-2.295h-32.727zM457.787 180.883h32.727v-9.644h-32.727zM442.414 185.567h19.307v-1.441h-19.307zM442.414 190.101h19.307v-3.903h-19.307zM495.888 181.574h1.441V154.55h-1.441z"/>
            <path fill="#D6D6D6" d="M495.943 248.442l-23.559-13.176 8.098-.534z"/>
            <path fill="#E8E8E8" d="M495.943 248.442l-7.25-11.66-6.083-.163z"/>
            <path fill="#C2C2C2" d="M477.802 238.296l-.472 2.969 18.613 7.177z"/>
            <path fill="#F5F5F5" d="M231.997 326.304h-58.094a4.843 4.843 0 0 1-4.843-4.843v-69.036a4.843 4.843 0 0 1 4.843-4.843h58.094a4.843 4.843 0 0 1 4.843 4.843v69.036a4.843 4.843 0 0 1-4.843 4.843"/>
            <path fill="#4AAFFF" d="M198.271 298.295c-5.231 1.871-10.87.183-14.269-3.812a12.91 12.91 0 0 1-2.332-4.043 12.927 12.927 0 0 1-.169-8.243 12.964 12.964 0 0 1 8.024-8.358 12.994 12.994 0 0 1 3.984-.757c5.476-.165 10.672 3.175 12.617 8.611 2.415 6.754-1.102 14.187-7.855 16.602m11.936-18.06c-2.593-7.252-9.523-11.706-16.827-11.486-1.768.053-3.558.38-5.315 1.008-5.32 1.903-9.135 6.14-10.703 11.147a17.245 17.245 0 0 0 .226 10.996 17.233 17.233 0 0 0 3.112 5.391c4.532 5.33 12.054 7.582 19.03 5.087 9.009-3.222 13.699-13.136 10.477-22.144"/>
            <path fill="#1A598C" d="M181.5 282.197l-4.138-1.293c1.568-5.006 5.383-9.244 10.703-11.147a17.306 17.306 0 0 1 5.315-1.008l.13 4.333c-1.327.041-2.669.286-3.985.757a12.965 12.965 0 0 0-8.024 8.358"/>
            <path fill="#2273B5" d="M181.99 291.25l-3.975 1.73a17.612 17.612 0 0 1-.427-1.08 17.244 17.244 0 0 1-.226-10.996l4.139 1.293a12.927 12.927 0 0 0 .489 9.053"/>
            <path fill="#3788CC" d="M180.7 297.292a17.227 17.227 0 0 1-2.685-4.312l3.975-1.73a12.913 12.913 0 0 0 2.013 3.233l-3.303 2.809z"/>
            <path fill="#4AAFFF" d="M227.017 299.59a5.374 5.374 0 0 1-7.153 2.558 5.35 5.35 0 0 1-2.461-2.362 5.363 5.363 0 0 1-.097-4.792 5.364 5.364 0 0 1 7.153-2.558 5.372 5.372 0 0 1 2.558 7.153m-1.791-8.774a7.17 7.17 0 0 0-8.282 1.563 7.16 7.16 0 0 0-1.26 1.849 7.154 7.154 0 0 0 .13 6.391 7.131 7.131 0 0 0 3.723 3.342 7.168 7.168 0 0 0 9.101-3.603 7.165 7.165 0 0 0-3.412-9.542"/>
            <path fill="#1A598C" d="M217.403 299.786l-1.588.832a7.155 7.155 0 0 1-.13-6.39 7.166 7.166 0 0 1 1.26-1.85l1.305 1.23a5.363 5.363 0 0 0-.846 6.178"/>
            <path fill="#2273B5" d="M220.194 302.29l-.656 1.67a7.132 7.132 0 0 1-3.723-3.342l1.588-.832a5.347 5.347 0 0 0 2.791 2.505"/>
            <path fill="#4AAFFF" d="M219.864 280.328a5.374 5.374 0 0 1-2.558-7.153 5.347 5.347 0 0 1 2.361-2.46 5.364 5.364 0 0 1 4.792-.098 5.374 5.374 0 0 1-4.595 9.712m8.774-1.792a7.169 7.169 0 0 0-1.563-8.282 7.162 7.162 0 0 0-1.849-1.26 7.156 7.156 0 0 0-6.39.13 7.132 7.132 0 0 0-3.342 3.724 7.167 7.167 0 0 0 13.144 5.688"/>
            <path fill="#4AAFFF" d="M219.667 270.714l-.832-1.588a7.155 7.155 0 0 1 6.391-.13c.698.33 1.317.758 1.85 1.26l-1.23 1.305a5.376 5.376 0 0 0-1.387-.944 5.363 5.363 0 0 0-4.792.097"/>
            <path fill="#2273B5" d="M217.163 273.506l-1.67-.657a7.13 7.13 0 0 1 3.342-3.723l.832 1.588a5.347 5.347 0 0 0-2.504 2.792"/>
            <path fill="#3788CC" d="M215.018 274.895a7.125 7.125 0 0 1 .476-2.046l1.669.657a5.344 5.344 0 0 0-.358 1.534l-1.787-.145z"/>
            <path fill="#E2F3FE" d="M219.96 309.158h-13.38v-.266h13.114v-5.055h.266zM194.764 309.158h-17.402v-.266h17.136v-8.274h.266z"/>
            <path fill="#4AAFFF" d="M177.362 307.72h11.974v-1.596h-11.974zM206.58 307.72h7.043v-1.596h-7.042zM174.65 255.564h5.73v-1.224h-5.73zM198.54 260.175h8.891v-1.225h-8.891zM187.043 260.175h5.428v-1.225h-5.428zM174.65 260.175h10.754v-1.225H174.65zM182.125 255.564h8.491v-1.224h-8.491zM194.17 260.175h2.333v-1.225h-2.333zM201.088 255.632h6.343v-1.225h-6.343zM209.693 260.175h5.41v-1.225h-5.41zM192.704 255.632h6.724v-1.225h-6.724z"/>
            <path fill="#FFF" d="M208.281 333.698H197.62a3.232 3.232 0 0 1-3.233-3.232v-10.663a3.232 3.232 0 0 1 3.233-3.232h10.662a3.232 3.232 0 0 1 3.232 3.232v10.663a3.232 3.232 0 0 1-3.232 3.232"/>
            <path fill="#047BF8" d="M202.14 328.542h1.62v-6.815h-1.62z"/>
            <path fill="#047BF8" d="M199.543 325.945h6.814v-1.62h-6.814z"/>
            <path fill="#323657" d="M236.395 298.758a.016.016 0 0 1 .009 0c-.039.016-.044.018-.01 0"/>
            <path fill="#EDB14F" d="M113.099 326.266s-7.104 20.724-7.557 23.064c-.496 2.559-6.053 20.98-6.053 20.98s-11.66-11.418-15.301-14.315c-3.642-2.897 23.887-30.337 28.91-29.729"/>
            <path fill="#2F302F" d="M116.793 406.597s2.355-.956 3.322-1.366c.967-.409 1.112-1.308 1.518-.709.407.6 2.427 2.44 3.516 2.673 1.088.234 8.163 1.307 8.302 2.91.139 1.604-3.158 2.167-7.814 2.41-4.65.243-4.766 1.445-7.87.652-.967-.247-.974-6.57-.974-6.57M48.187 380.485s1.165 2.17 1.662 3.063c.497.893 1.381.94.844 1.395-.537.456-2.106 2.601-2.219 3.68-.112 1.077-.412 8.032-1.949 8.333-1.536.302-2.425-2.828-3.145-7.306-.72-4.474-1.895-4.46-1.452-7.545.138-.961 6.259-1.62 6.259-1.62"/>
            <path fill="#EEA886" d="M126.27 331.02s1.131-2.064 1.314-2.374c.182-.31 1.088-.743 2.17-1.15 1.083-.407 2.728-.472 2.89-.356.162.117.38.16.548.644.17.483.047.984.047.984s.488.498.29 1.104c0 0 .438.49.1 1.142 0 0 .416.49.13.942 0 0-.906.436-1.195.694-.29.258-2.237 1.035-4.22 1.493 0 0-2.169.592-2.073-3.123"/>
            <path fill="#CF8C6C" d="M129.512 330.203s-.118 1.177-.317 1.49c-.2.314 2.253 1.353 2.253 1.353s-.51-2.662-1.936-2.843"/>
            <path fill="#070707" d="M88.41 345.284c-1.927 1.452-4.514 7.137-6.319 11.58-.04.08-4.339 8.78-5.973 11.22-2.454 3.666-5.512 3.339-10.778 5.34-4.278 1.625-17.81 6.514-17.81 6.514l3.168 6.304s20.483-4.696 27.04-7.414c3.323-1.378 14.304-10.64 14.306-10.641a88.124 88.124 0 0 0 5.805-5.223 56.09 56.09 0 0 0 1.64-1.675s-9.461-17.225-11.079-16.005"/>
            <path fill="#FFBF55" d="M105.063 318.035l5.804 14.668s.29 2.033 4.526.66c4.325-1.402 11.26-3.249 11.26-3.249s2.451 5.15 1.94 5.448c-1.48.863-13.41 5.309-18.385 6.665-3.946 1.076-12.042-20.096-12.042-20.096l6.897-4.096z"/>
            <path fill="#070707" d="M115.333 375.765c.087-2.45-2.67-9.366-4.748-13.56-3.26-6.702-6.571-13.675-6.571-13.675s-18.916-.01-18.884 2.015c.063 3.84 9.321 12.48 10.787 14.177l.62.676s3.504 3.366 4.93 5.95c2.08 3.77 3.115 6.384 4.48 11.309 1.222 4.41 9.635 25.172 9.635 25.172l7.837-2.701s-8.221-25.559-8.086-29.363"/>
            <path fill="#443C7D" d="M84.188 349.332s12.912-13.77 11.8-22.673a17.348 17.348 0 0 1 .067-4.816c.81-5.214 3.955-9.526 7.868-11.66 0 0-.037-1.138 5.398 4.084.3.288 3.33 5.617 3.741 11.411.505 7.091-1.526 8.514-4.029 13.906-1.829 3.941-4.46 7.373-5.02 8.945 0 0-1.451 2.32-19.825.803"/>
            <path fill="#EEA886" d="M109.662 309.732s-.066.289-.16.737c-.068.33-.152.747-.237 1.198-.23 1.223-.46 2.7-.398 3.397.12 1.303-4.81-4.659-4.81-4.659s.905-4.127 1.171-8.845c.266-4.717 4.434 8.172 4.434 8.172"/>
            <path fill="#A77860" d="M109.51 310.436c-.07.33-.16.78-.245 1.231-1.67-1.574-2.935-3.443-3.313-4.027.728.979 3.558 2.796 3.558 2.796"/>
            <path fill="#FFBF55" d="M107.875 331.415c-.04.13-.097.247-.148.363-.178.413-.647.94-1.099 1.717-3.842 6.606-7.948 15.636-9.582 21.954-1.862 7.2-2.847 12.893-2.847 12.893l-14.422-13.166s5.008-10.732 10.259-17.128c5.815-7.084 4.163-23.193 4.163-23.193l8.298-3.849 1.236-1.352 4.536 3.4 2.481 1.609s-1.207 11.367-2.875 16.752"/>
            <path fill="#DEDEDE" d="M13.157 327.574L13 325l151.308-9.251.157 2.573zM14.667 352.27l-.157-2.573 151.308-9.251.157 2.573z"/>
            <path fill="#DEDEDE" d="M149.495 317.038l2.785-.17 1.59 26.014-2.784.17zM129.102 318.285l2.785-.17 1.59 26.014-2.784.17zM108.709 319.532l2.785-.17 1.59 26.014-2.784.17zM88.316 320.779l2.785-.17 1.59 26.013-2.785.17zM67.923 322.026l2.785-.17 1.59 26.013-2.785.17zM47.53 323.272l2.785-.17 1.59 26.014-2.785.17zM27.136 324.52l2.785-.171 1.59 26.014-2.784.17z"/>
            <path fill="#EEA886" d="M89.391 349.566s-.448-.388-.56-.653c0 0-.17-.498-.311-.845a2.517 2.517 0 0 0-.12-.263c-.14-.244-.52-.738-.69-1.418-.172-.68-.154-3.801-.154-3.801l1.69-.47 1.52-.665s3.043 3.028 3.276 3.642c.022.06.042.12.056.179.147.54.028 1.003.073 1.295.016.107.1 1.185-.132 1.41-.322.312-.671.397-.971.331 0 0-.657.583-1.248.607 0 0-.589.557-1.332.377 0 0-.661.5-1.097.274"/>
            <path fill="#FFBF55" d="M103.338 319.486s3.29-.21 1.655-5.196c-2.208-6.728-8.767.085-22.623 5.757 0 0-3.882 1.569-2.77 5.717 1.111 4.148 6.028 17.323 6.35 18.649l5.553-3.054s-2.528-6.539-3.204-9.962c-.676-3.424-1.154-6.605-1.154-6.605l16.193-5.306z"/>
            <path fill="#DB9C7C" d="M132.356 327.236s-2.719 1.099-2.596 1.559c.122.46.446.554.446.554l-.914.96s-.246.977.89.96c0 0-.324.889.77.742 0 0 .048.681.568.703.52.021 2.24-.758 2.24-.758s.374-.36-.045-.975c0 0 .342-.578-.119-1.114 0 0 .211-.54-.292-1.113 0 0 .316-1.205-.66-1.614 0 0-.174.05-.288.096"/>
            <path fill="#EEA886" d="M127.666 328.602s2.004.18 3.055.759c.238.131.445.301.413.571-.032.27-.464.567-1.336.534-.873-.034-2.015.322-2.015.322s-.887-.297-.117-2.186M114.57 299.205s1.528 2.85.766 3.29c-.63.364.729 3.161.907 3.618.177.456-1.141.785-1.422 1.078-.28.293-1.118 3.905-2.204 4.012-1.085.106-5.97-1.606-7.298-2.993-1.328-1.387-2.406-7.642-1.511-10.277.895-2.636 8.063-3.707 10.761 1.272"/>
            <path fill="#202338" d="M114.891 299.79s.581-2.07-2.26-4.357c-2.841-2.287-7.173.465-7.715.886-.483.374-3.37 2.77-2.268 6.271 1.84 5.85 1.822 5.607 1.822 5.607s.796-3.53 1.863-3.776c1.157-.266 2.74-.45 2.74-.45s-.998-2.67.573-3.043c1.57-.374 3.659-1.732 5.245-1.139"/>
            <path fill="#EEA886" d="M108.396 304.162c-.077-.312-.433-1.71-1.527-1.503-1.094.208-.73 1.927.115 2.932s1.845.313 1.412-1.43"/>
            <path fill="#202338" d="M104.687 296.506s-3.793.775-3.173 3.644c.62 2.869 2.301 6.09 2.543 6.763.24.673.63-10.407.63-10.407"/>
            <path fill="#151C23" d="M108.884 97.826s-1.37 1.201-2.6 3.047c-1.231 1.845-4.497 1.943-4.637 4.462-.14 2.52 4.44 2.597 6.846 1.777 2.404-.82 2.768-3.28 4.222-3.896 1.454-.615 2.21-1.113 2.097-2.314-.112-1.201-.916-3.15-.916-3.15s-.904.288-1.435.346c-.531.059-2.319.08-3.577-.272"/>
            <path fill="#F2C344" d="M125.368 29.57s-.922 5.48-1.665 9.101c-.301 1.469-.573 2.63-.742 2.997-.212.46-1.942 2.318-4.06 4.498-3.715 3.824-8.623 8.64-8.623 8.64l-1.919-3.642s4.36-5.111 7.315-8.522c1.369-1.578 2.436-2.792 2.631-2.967.618-.552 1.335-6 2.343-10.487 1.008-4.488 3.029-6.968 3.029-6.968l1.69 7.35z"/>
            <path fill="#EEA886" d="M118.902 46.166c-3.716 3.824-8.624 8.64-8.624 8.64l-1.919-3.642s4.36-5.111 7.316-8.522c.906.445 2.569 1.504 3.227 3.524"/>
            <path fill="#151C23" d="M142.727 96.325s1.262 1.395 2.008 2.241c.746.846 3.604 2.358 3.62 4.87.016 2.724-2.11 2.484-4 2.385-1.89-.1-3.426-1.405-4.222-2.948-.796-1.542-2.914-1.947-3.063-3.191-.15-1.244.981-3.482.981-3.482l4.676.125z"/>
            <path fill="#5F8CC9" d="M138.295 93.881l-.244 2.319s3.946 1.72 4.676.125l-.17-2.065-4.262-.379zM109.1 96.148l-.216 1.678s2.385.843 5.012-.075l.053-1.492-4.85-.111z"/>
            <path fill="#F2C344" d="M142.95 54.066c.137.487-25.257 0-25.257 0s7.024-5.114 7.48-6.48c.455-1.366-1.789-9.56-2.082-12.227-.234-2.134-.82-11.681.586-13.14 1.47-1.524 6.764-3.121 6.764-3.121l7.719.286s1.274.267 2.184.69c.91.422 6.118 2.277 6.964 4.879.845 2.601-5.197 10.966-5.197 10.966l-.03.992c-.023.822-.057 2.07-.089 3.425-.04 1.754-.075 3.685-.075 5.096 0 3.317.896 8.146 1.033 8.634"/>
            <path fill="#0B3460" d="M142.95 54.066s3.454 5.073 3.503 8.536c.049 3.464-1.28 13.067-1.377 14.97-.098 1.902-1.886 17.756-1.886 17.756s-1.383 1.285-5.529-.325l-1.013-16.645c-.097-1.61-.097-9.024-1.024-10.097-.927-1.073-6.537-4.44-7.268-5.073-.732-.635-13.48 2.408-14.815 2.754-3.458.897-1.882 6.915-1.117 9.613 1.28 4.514 2.4 20.814 2.4 20.814s-2.464 1.05-6.59.162c0 0-8.103-29.431-8.363-32.359-.26-2.926-.388-7.752 19.58-11.421l23.5 1.315z"/>
            <path fill="#EEA886" d="M132.56 2.328s-6.7-1.511-5.17 6.92c1.53 8.433 3.141 9.095 7.183 7.35 4.043-1.745 3.68-7.147 3.884-9.796.204-2.649-3.76-4.382-5.898-4.474"/>
            <path fill="#EEA886" d="M130.786 21.262s2.967 3.146 7.657.287c0 0-1.049-6.818-.497-10.138.552-3.32-6.118 5.145-6.118 5.145.088.046.146.363.159.814.011.382-.01.86-.07 1.35-.138 1.105-.481 2.27-1.13 2.542"/>
            <path fill="#EEA886" d="M136.152 8.13c.089-.744 1.559-1.016 1.678.1.118 1.114-.669 3.072-1.227 2.88-.558-.193-.572-1.954-.45-2.98"/>
            <path fill="#3A3F47" d="M138.13 11.129s-.172-2.657-1.143-2.74c-.97-.083-1.12.987-1.12.987l-.98.185s.31-2.328-.658-2.735c-.97-.407-6.278 1.281-7.056.598-.777-.683-.412-5.407.995-6.053 1.407-.646 5.291-2.095 8.137-.168 0 0 2.22-.253 2.548 1.537.33 1.79-.12 7.057-.722 8.389"/>
            <path fill="#A77860" d="M131.917 18.72c4.838-1.49 5.202-4.404 5.208-4.45-1.594 2.738-5.138 3.1-5.138 3.1.011.382-.009.86-.07 1.35"/>
            <path fill="#EEA886" d="M140.423 20.11s-3.542 7.053-9.266 6.598c-5.724-.455-.976-7.545-.716-7.61.286-.072 5.87-1.464 9.982 1.012"/>
            <path fill="#F2C344" d="M114.788 53.708s17.537 2.163 28.162.358l-20.302-2.537s-.12.518-7.86 2.18"/>
            <path fill="#EEA886" d="M127.905 50.73l-1.307.662s.298 2.075 1.013 2.704l1.466-.374s-.305-2.276-1.172-2.992"/>
            <path fill="#F2C344" d="M148.198 46.48c-.261.303-3.71 1.69-7.604 3.19-5.32 2.05-11.323 3.99-11.323 3.99l-1.366-2.93s6.285-3.415 10.532-5.81c2.007-1.132 3.558-2.035 3.777-2.244.683-.65.86-1.694.358-3.512-.502-1.82-1.659-10.18-1.789-11.156-.13-.975.325-3.577 2.765-3.707 2.439-.13 3.68.558 3.68.558s.612.255 1.067 6.174c.456 5.92.521 14.733-.097 15.448"/>
            <path fill="#B59233" d="M142.082 36.911c-.024.822-.058 2.07-.09 3.425-2.38-5.835-1.005-10.492-.981-10.57-.258 1.583 1.052 7.068 1.07 7.145M123.703 38.671c-.301 1.468-.573 2.63-.742 2.997-.813-3.935-.081-8.973-.081-8.973.11 2.406.823 5.976.823 5.976"/>
            <path fill="#EEA886" d="M140.594 49.67c-5.321 2.05-11.517 4.052-11.517 4.052l-1.173-2.992s6.286-3.415 10.533-5.81c0 0 1.545.752 2.157 4.75"/>
            <path fill="#5E5853" d="M127.526 53.896l-24.926-.367 12.585 6.39z"/>
            <path fill="#91887F" d="M115.185 59.92l12.341-4.781v-1.243L114.21 58.7z"/>
            <path fill="#EEA886" d="M126.88 51.438s-1.556-.243-2.633-.493c-.833-.194-2.903.073-3.43.608-.528.534-2.206 4.258-2.523 4.485-.317.227.162.753.72.49 0 0 .511 1.629 1.774 1.019 1.262-.61 2.119-1.942 2.78-2.177.662-.235 4.511-1.418 4.511-1.418s-.207-2.91-1.199-2.514"/>
            <path fill="#EEA886" d="M121.196 51.308s-1 .483-1.261.699a63.895 63.895 0 0 1-1.576 1.194c-.256.186.387.716 2.279-.103 1.892-.82.558-1.79.558-1.79"/>
            <path fill="#6E6760" d="M115.185 59.92l-7.415-20.245-23.902.39 7.067 18.656z"/>
            <path fill="#807066" d="M100.123 48.631c.729 1.458.509 3.046-.492 3.547-1.002.5-2.404-.275-3.134-1.733-.73-1.459-.509-3.046.492-3.547 1.001-.501 2.404.275 3.134 1.733"/>
            <path fill="#0E2D3D" d="M232.3 295.407s3.972 1.943 2.99 7.23c-.982 5.287-1.417 6-.318 8.065 1.098 2.066 2.395 10.878 1.406 12.548-.989 1.67-12.24-7.34-13.8-14.9-1.56-7.559.988-10.921 1.89-12.174.9-1.253 4.324-2.55 7.831-.769"/>
            <path fill="#174666" d="M233.4 314.492s2.022.411 3.157 2.083c.79 1.163.854 3.746.968 4.233.114.486 1.623 5.992 1.623 5.992l-4.213 2.823-1.535-15.131z"/>
            <path fill="#1D3B54" d="M248.963 408.638s2.75 3.7 2.372 4.287c-.377.587-3.268.67-5.027 0-1.76-.67-1.802-5.007-2.598-6.871-.333-.78.38-3.083 1.382-3.25 1.003-.167 2.094.324 2.094.324s-1.04 2.625 1.777 5.51"/>
            <path fill="#EEA886" d="M247.204 403.098s.579 1.576.79 3.08c.175 1.248 1.958 3.898 1.875 4.233-.084.336-2.347.64-3.268-.225-.922-.864-1.515-3.377-1.718-4.88-.189-1.4-.428-2.092-.428-2.092s1.87-1.038 2.75-.116"/>
            <path fill="#1D3B54" d="M225.036 408.7s2.65 3.638 2.273 4.225c-.377.587-3.268.67-5.028 0-1.76-.67-1.802-5.007-2.598-6.87-.333-.78.38-3.084 1.383-3.25 1.003-.168 2.179.358 2.179.358s-1.027 2.651 1.79 5.536"/>
            <path fill="#EEA886" d="M223.245 403.163s.21 1.718.544 2.933c.335 1.215 2.137 3.98 2.053 4.315-.084.336-2.346.64-3.268-.225-.921-.864-1.634-3.366-1.717-4.88-.084-1.514.209-2.502.209-2.502s1.299-.562 2.179.36"/>
            <path fill="#EEA886" d="M236.486 342.914s2.36 10.974 2.9 13.736c.543 2.763 2.06 16.145 2.222 18.42.163 2.275 2.462 10.849 2.353 11.661-.108.813 3.409 17.137 3.409 17.137s-1.201.967-2.468.088c-.65-.453-7.716-15.283-7.716-19.346 0-5.616-4.153-12.948-4.689-14.204-4.978-11.674-3.998-15.242-4.648-16-.65-.76-.706.468-1.085 2.147-.38 1.68-1.192 16.199-1.68 18.04-.487 1.843-.108 8.073-.38 11.215-.27 3.142-1.46 17.355-1.46 17.355s-.92 1.444-2.213.038c-.278-.303-2.23-15.833-2.285-19.571-.054-3.738-.112-8.893-.217-10.51-1.003-15.49-3.47-17.703.415-28.666 7.275-20.527 17.542-1.54 17.542-1.54"/>
            <path fill="#0B63B2" d="M220.645 339.847s-6.72 9.405-3.827 29.413c0 0 15.94 2.168 24.48-2.508 0 0-3.532-20.628-4.812-23.838-1.28-3.21-15.841-3.067-15.841-3.067"/>
            <path fill="#1D3B54" d="M243.636 405.729v3.874h.503v-2.994zM219.61 405.729v3.874h.503v-2.994z"/>
            <path fill="#EDDAD3" d="M229.664 313.12s2.476 1.17 3.335 1.341c.86.172 4.196 4.505 4.78 6.087.585 1.582 0 3.954-1.203 6.74-1.204 2.785-.07 3.713-.62 6.499-.55 2.785-1.031 8.682-.928 10.23.103 1.547-13.908 1.84-17.106-.98 0 0 3.214-4.814 3.627-5.502.412-.688.068-4.436-.31-5.399-.378-.962-2.896-9.15-2.896-9.15s-2.06-6.289-.199-7.734c1.617-1.255 6.021-1.702 6.812-1.977.791-.276 3.092-.395 4.708-.155"/>
            <path fill="#D6C5BE" d="M230.455 318.64l1.504-1.762-1.306-4.638s-.439 2.583-.198 6.4"/>
            <path fill="#EEA886" d="M230.846 310.263s-.068.62-.148 1.479c-.035.38-.073.808-.108 1.248-.101 1.25-.183 2.605-.135 3.293 0 0-2.573 2.58-5.499-3.008 0 0 1.231-2.303.304-5.442-.926-3.137 5.586 2.43 5.586 2.43"/>
            <path fill="#EEA886" d="M230.455 316.284v2.355l-2.961-2.212z"/>
            <path fill="#D6C5BE" d="M230.455 318.64l-1.23-1.522-4.14-4.127-1.34 1.29z"/>
            <path fill="#174666" d="M224.51 313.385s3.475 5.274 3.64 7.595c.167 2.321-1.29 19.684-2.458 25.265-1.167 5.582-9.6-.63-9.6-.63s5.667-9.172 3.491-16.516c-2.175-7.345-2.965-10.281-2.965-10.281s.748-4.09 3.4-4.666c2.326-.505 4.492-.767 4.492-.767M238.008 321.252s.627 2.218-1.815 7.12c0 0 .039 6.275.107 8.235.07 1.96 1.455 9.008 1.455 9.008l-3.336 1.776a.681.681 0 0 1-1.021-.67c.684-5.64 2.908-27.036-1.897-32.787l1.928.569s3.426 2.804 4.579 6.75"/>
            <path fill="#FAE6DE" d="M231.96 316.878l1.895.523-3.202-5.161zM229.225 317.118l-1.731 2.27-3.556-5.927 1.239-.712z"/>
            <path fill="#EB4747" d="M231.732 326.296l.492-.39 4.6 5.814-.491.39z"/>
            <path fill="#EEA886" d="M231.448 331.451s.439.009.728-.209c.499-.376.679-1.303 1.559-1.235.88.067 1.289 2.829 1.068 3.351-.22.523-1.443.785-3.25.424-1.807-.36-.105-2.33-.105-2.33"/>
            <path fill="#EEA886" d="M233.433 330.026s1.265-.432 2.727-.748c1.281-.277 2.813-.367 2.962-.145.166.247-1.249.461-2.504.818-1.157.328-.881.449-.881.449s-.077-.04 1.244-.163c1.419-.132 2.881-.13 3.025.154.07.139.021.232-.49.361.307-.014.35.066.362.19.061.639-2.01 1.148-2.831 1.35.632-.152 1.11-.198.882.23-.26.49-3.215 1.083-4.257 1.393-1.137.338-.239-3.89-.239-3.89"/>
            <path fill="#174666" d="M220.509 314.246c-.871-.282-3.427.624-3.86 3.245-.431 2.62-.604 5.53-1.007 6.94-.403 1.412-1.43 7.665-.567 8.183.864.519 2.5.992 4.796.992 2.37 0 11.559.413 11.559.413l.576-3.265s-3.49-.18-5.298-.454c-1.61-.244-3.841-.93-6.468-1.217 0 0 .557-3.873.96-4.968.403-1.094 3.225-8.602-.691-9.869"/>
            <path fill="#EEA886" d="M237.316 331.006l.431 1.05-.922-.661z"/>
            <path fill="#FFB855" d="M232.254 336.48l9.256-1.835 6.865-14.69-9.88 1.039z"/>
            <path fill="#EEA886" d="M242.664 332.152s.508-.47.96-1.13c.452-.66 1.93-3.178 1.795-3.336-.135-.159-2.33-.212-2.729.146-.398.358.392.499.392.499s-1.2.124-1.115.462c.086.34.809.245.809.245s-.967.186-.82.483c.146.298.611.295.611.295s-.856.107-.75.432c.106.326 1.46.632 1.28.902-.182.27-.433 1.002-.433 1.002"/>
            <path fill="#EEA987" d="M231.723 295.993s5.769 1.813 2.637 11.768c-3.131 9.955-11.01-1.154-10.186-7.219.825-6.065 7.55-4.549 7.55-4.549"/>
            <path fill="#0E2D3D" d="M234.95 301.802s-2.866 2.813-7.664 3.164c0 0-1.843 2.162-1.985 3.01 0 0-4.28-7.295.981-11.668 5.262-4.373 10.602 3.692 8.668 5.494"/>
            <path fill="#EEA987" d="M227.344 305.164c-.037-.724-.483-2.373-1.56-1.911-1.077.461.066 3.819.78 3.612 0 0 .868.014.78-1.7"/>
            <path fill="#A77860" d="M230.698 311.742c-.035.38-.073.808-.108 1.248h-.001c-3.335-1.646-3.846-4.021-3.861-4.094 2.376 3.07 3.97 2.846 3.97 2.846"/>
            <path fill="#F2C344" d="M298.767 322.408s7.278 12 9.827 11.373c1.179-.29 5.085-3.3 6.56-5.213.487-.63.964-1.291 1.418-1.945v-.003c1.81-2.613 3.23-5.118 3.23-5.118s7.017-7.097 2.723-9.892c0 0-3.435.48-4.866 2.013-1.432 1.533-2.901 4.506-3.277 5.324-.375.817-5.328 6.718-5.6 6.888-.273.17-2.144-.842-3.376-2.218-1.815-2.027-3.788-4.764-3.788-4.764l-2.85 3.555z"/>
            <path fill="#2F302F" d="M306.426 405.604s-2.47 2.016-4.546 2.466c-2.076.45-3.166 1.512-3.181 2.745-.016 1.233 5.975 2.044 8.352.802 3.546-1.854 3.907-1.296 4.3-2.222.393-.927.077-3.38.103-3.675.031-.364-5.028-.116-5.028-.116"/>
            <path fill="#2E2626" d="M306.595 404.933s-.27 1.006-.23 1.028c.04.02 4.68.54 4.54-.267-.115-.655-.277-1.366-.277-1.366l-4.033.605z"/>
            <path fill="#2F302F" d="M335.937 407.22s-1.537 2.326-3.486 2.793c-1.923.461-2.632 1.193-2.727 2.354-.094 1.16 4.533 2.68 7.784.642 2.136-1.34 2.932-1.264 3.363-2.114.43-.851.103-3.248.147-3.525.053-.341-5.081-.15-5.081-.15"/>
            <path fill="#2F6B8C" d="M336.454 406.372s-.096.98-.06 1.002c.036.023 4.32.78 4.294.008-.02-.613-.271-1.376-.271-1.376l-3.963.366z"/>
            <path fill="#070707" d="M318.767 347.296s-5.82 14.439-7.494 19.342c-2.202 6.451-3.414 12.135-3.692 15.228-.348 3.89-1.713 22.246-1.957 23.384-.244 1.137 6.533.756 6.533.756s3.813-23.148 4.851-27.291c.967-3.858 10.12-21.357 11.002-20.304.882 1.053 3.813 18.966 4.467 22.008.653 3.043 2.404 26.992 2.404 26.992s5.949.954 7.146 0c0 0-.938-21.356-1.355-27.06-.158-2.173 1.376-26.023-2.3-35.64-1.943-5.083-19.605 2.585-19.605 2.585"/>
            <path fill="#F2C344" d="M317.148 351.221s12.382 3.756 23.29 2.338c0 0-2.387-14.434-1.947-18.019.31-2.574 1.352-8.3 2.207-12.83.359-1.89.676-3.576.905-4.733.195-1.018.317-1.637.317-1.637s-.47-2.174-1.439-2.997c-.97-.822-9.391-2.304-9.391-2.304l-6.04-.002s-5.035 1.034-5.694 1.613c-.71.619-2.119 6.85-2.2 8.529-.073 1.678.358 8.602 1.067 11.217.71 2.615-.627 15.209-1.075 18.825"/>
            <path fill="#C6CAD9" d="M318.35 326.82h2.514v-3.839h-2.514z"/>
            <path fill="#EEA886" d="M323.943 311.278s-1.184 1.762.467 2.062c1.65.3 4.842-.067 6.68-2.3 0 0-4.825-.436-7.147.238"/>
            <path fill="#BF9A36" d="M330.263 328.836s8.529-4.847 10.435-6.126c.359-1.89.676-3.576.905-4.733 0 0-5.809 2.354-11.34 10.86"/>
            <path fill="#717070" d="M333.836 335.583l-.564-1.432 9.77-2.29 1.429 2.818z"/>
            <path fill="#717070" d="M332.639 340.386l-1.412-.613 2.058-5.634 1.401 1.16z"/>
            <path fill="#717070" d="M332.626 341.264l-1.4-1.492 1.127-1.058 1.4 1.491zM343.51 345.635l1.417.6 2.584-9.765-2.782-1.497z"/>
            <path fill="#717070" d="M338.678 346.714l.578 1.426 5.683-1.918-1.125-1.43z"/>
            <path fill="#717070" d="M337.774 346.731l1.483 1.41 1.086-1.101-1.484-1.41z"/>
            <path fill="#F8FAFA" d="M360.888 328.377a7.494 7.494 0 0 0 2.581-10.28l-19.635-32.978a7.494 7.494 0 1 0-12.86 7.699l19.635 32.978a7.494 7.494 0 0 0 10.28 2.58"/>
            <path stroke="#C8C9C9" stroke-width=".5" d="M360.888 328.377a7.494 7.494 0 0 0 2.581-10.28l-19.635-32.978a7.494 7.494 0 1 0-12.86 7.699l19.635 32.978a7.494 7.494 0 0 0 10.28 2.58z"/>
            <path fill="#FFF" d="M277.812 341.325l-12.542-13.36 18.574-17.464c.9-.846 2.316-.801 3.162.1l9.48 10.098c.845.9.8 2.316-.1 3.162l-18.574 17.464z"/>
            <path stroke="#C8C9C9" stroke-width=".5" d="M277.812 341.325l-12.542-13.36 18.574-17.464c.9-.846 2.316-.801 3.162.1l9.48 10.098c.845.9.8 2.316-.1 3.162l-18.574 17.464z"/>
            <path fill="#FFF" d="M282.401 321.513c-2.646-4.428-1.116-10.168 3.384-12.69l47.542-26.66a7.66 7.66 0 0 1 7.856 13.147l-46.002 29.236c-4.354 2.768-10.134 1.396-12.78-3.033"/>
            <path stroke="#C8C9C9" stroke-width=".5" d="M282.401 321.513c-2.646-4.428-1.116-10.168 3.384-12.69l47.542-26.66a7.66 7.66 0 0 1 7.856 13.147l-46.002 29.236c-4.354 2.768-10.134 1.396-12.78-3.033z"/>
            <path fill="#FFF" d="M339.387 293.853a5.53 5.53 0 1 1-5.674-9.495 5.53 5.53 0 0 1 5.674 9.495"/>
            <path stroke="#C8C9C9" stroke-width=".5" d="M339.387 293.853a5.53 5.53 0 1 1-5.674-9.495 5.53 5.53 0 0 1 5.674 9.495z"/>
            <path fill="#C8C9C9" d="M336.915 285.872a.366.366 0 1 1-.376-.629.366.366 0 0 1 .376.63M339.94 290.935a.366.366 0 1 1-.375-.628.366.366 0 0 1 .375.628M333.54 287.889a.366.366 0 1 1-.376-.629.366.366 0 0 1 .375.629M336.565 292.952a.366.366 0 1 1-.376-.628.366.366 0 0 1 .376.628"/>
            <path fill="#FFF" d="M294.432 322.11a6.728 6.728 0 1 1-6.902-11.551 6.728 6.728 0 0 1 6.902 11.55"/>
            <path stroke="#C8C9C9" stroke-width=".5" d="M294.432 322.11a6.728 6.728 0 1 1-6.902-11.551 6.728 6.728 0 0 1 6.902 11.55z"/>
            <path fill="#C8C9C9" d="M291.425 312.4a.445.445 0 1 1-.457-.764.445.445 0 0 1 .457.765M295.105 318.56a.446.446 0 1 1-.456-.765.446.446 0 0 1 .456.765M287.319 314.854a.445.445 0 1 1-.457-.764.445.445 0 0 1 .457.764M290.999 321.013a.445.445 0 1 1-.457-.764.445.445 0 0 1 .457.764M322.673 292.028l.635 1.116c.078.137.057.214-.08.292l-1.145.651c-.137.078-.214.057-.292-.08l-.635-1.115-.32.182.739 1.299c.11.194.359.262.553.151l1.453-.826a.406.406 0 0 0 .151-.554l-.739-1.298-.32.182zM317.02 297.433l-.636-1.117c-.078-.137-.057-.213.08-.291l1.144-.652c.137-.078.214-.056.292.08l.635 1.117.32-.183-.739-1.3a.406.406 0 0 0-.553-.151l-1.452.826a.406.406 0 0 0-.152.554l.74 1.3.32-.183zM314.872 298.655l1.09-.621a.406.406 0 0 0 .153-.554l-.74-1.3-.32.184.635 1.116c.078.137.057.213-.08.291l-.937.534.199.35zM312.134 298.735c-.078-.137-.057-.214.08-.291l1.145-.652c.137-.078.213-.057.29.08l.332.581c.078.137.057.213-.08.291l-1.145.652c-.137.078-.214.057-.291-.08l-.331-.581zm.667 1.098l1.452-.826a.406.406 0 0 0 .153-.554l-.54-.946a.406.406 0 0 0-.553-.152l-1.452.826a.406.406 0 0 0-.152.554l.539.946c.11.195.359.263.553.152zM309.391 301.774l.969-.551a.402.402 0 0 0 .16-.167.405.405 0 0 0 .225-.052l.968-.551a.406.406 0 0 0 .152-.554l-.739-1.299-.32.183.634 1.116c.078.137.057.213-.08.291l-.661.377c-.137.078-.213.056-.291-.08l-.635-1.116-.321.182.635 1.116c.078.137.057.214-.08.291l-.661.377c-.137.078-.214.057-.292-.08l-.635-1.116-.32.183.739 1.298c.11.195.358.263.553.152M303.793 304.96l.424-.24.372-.994.869-.493.335.59.32-.183-.939-1.652-.32.183.402.708-.868.494-1.111-.305-.424.241 1.38.395zM320.767 294.59c.078.137.057.214-.08.291l-.428.244-.288.164-.429.244c-.121.07-.213.057-.271-.046l-.004-.006c-.063-.11-.031-.184.1-.258l.716-.408.613-.35.071.125zm-.622-.66c.137-.078.214-.057.291.078l.061.108-.613.35-.871.494c-.2.115-.3.29-.194.476l.238.418c.104.182.348.22.531.117l.582-.332.289-.164.581-.33a.406.406 0 0 0 .152-.554l-.114-.202-.287-.503-.137-.241v-.001a.405.405 0 0 0-.554-.152l-1.805 1.027.199.35 1.651-.94zM308.03 301.84c.078.137.057.213-.08.291l-.428.244-.289.164-.428.244c-.122.07-.213.057-.272-.047l-.003-.006c-.063-.11-.031-.183.099-.257l.717-.408.613-.35.071.125zm-.622-.661c.137-.078.213-.056.29.08l.062.106-.614.35-.87.495c-.201.115-.3.29-.194.476l.238.417c.104.182.348.221.53.117h.001l.581-.33.29-.165.581-.331a.406.406 0 0 0 .152-.554l-.115-.201-.286-.504-.137-.24v-.001a.406.406 0 0 0-.554-.153l-1.805 1.028.199.35 1.651-.94zM302.43 304.012c.122-.07.213-.057.272.046l.034.06c.062.11.03.184-.1.258l-1.33.757-.206-.364 1.33-.757zm-.557 2.042l1.72-.979-.2-.35-1.566.891c-.136.078-.213.056-.29-.079l-.032-.054 1.485-.845c.201-.114.3-.289.194-.476l-.269-.47c-.103-.183-.348-.221-.53-.117l-1.805 1.027.74 1.3c.11.195.358.263.553.152z"/>
            <path fill="#8D8D8D" d="M278.273 343.918l-15.561-16.576 1.595-1.498 15.561 16.577z"/>
            <path fill="#A4A4A4" d="M277.35 347.626l-18.397-19.597 2.503-2.35 18.397 19.597z"/>
            <path fill="#FFF" d="M363.09 327.225a6.894 6.894 0 0 0-9.434-10.049l-13.318 13.013 8.925 9.507 13.827-12.47z"/>
            <path stroke="#C8C9C9" stroke-width=".5" d="M363.09 327.225a6.894 6.894 0 0 0-9.434-10.049l-13.318 13.013 8.925 9.507 13.827-12.47z"/>
            <g>
                <path fill="#FFF" d="M361.231 326.29a4.977 4.977 0 1 1-6.813-7.258 4.977 4.977 0 0 1 6.813 7.258"/>
                <path stroke="#C8C9C9" stroke-width=".5" d="M361.231 326.29a4.977 4.977 0 1 1-6.813-7.258 4.977 4.977 0 0 1 6.813 7.258z"/>
                <path fill="#C8C9C9" d="M357.523 319.747a.329.329 0 1 1-.45-.48.329.329 0 0 1 .45.48M361.157 323.617a.329.329 0 1 1-.451-.48.329.329 0 0 1 .45.48M354.943 322.17a.33.33 0 1 1-.45-.48.33.33 0 0 1 .45.48M358.577 326.04a.33.33 0 1 1-.451-.48.33.33 0 0 1 .45.48"/>
            </g>
            <path fill="#C8C9C9" d="M347.951 340.934l-8.928-9.511 1.315-1.234 8.928 9.51z"/>
            <path fill="#8D8D8D" d="M347.534 341.326l-8.928-9.51.597-.562 8.928 9.51z"/>
        </g>
        <g transform="translate(344.44 326.65)">
            <mask id="I" fill="#fff">
                <use xlink:href="#G"/>
            </mask>
            <path fill="url(#H)" d="M1.49 1.316a4.32 4.32 0 0 0-.193 6.099 4.32 4.32 0 0 0 6.1.193 4.32 4.32 0 0 0 .191-6.1A4.303 4.303 0 0 0 4.441.15c-1.059 0-2.12.387-2.951 1.167m.667 5.292a3.139 3.139 0 0 1 .14-4.432 3.139 3.139 0 0 1 4.432.14 3.139 3.139 0 0 1-.14 4.432 3.125 3.125 0 0 1-2.146.848c-.836 0-1.67-.332-2.286-.988" mask="url(#I)"/>
        </g>
        <g>
            <path fill="#EEA886" d="M311.729 321.277s-.368-.346-.4-.75c-.055-.7.667-1.576-.116-2.23-.784-.654-3.708 1.202-4.018 1.792-.31.591.446 1.78 2.261 2.947 1.816 1.168 2.273-1.759 2.273-1.759"/>
            <path fill="#EEA886" d="M311.442 318.554s-.63-1.358-1.53-2.782c-.788-1.249-1.984-2.639-2.286-2.495-.698.333.543 1.398 1.236 2.689.638 1.189.345 1.033.345 1.033s.099.03-.865-1.128c-1.037-1.245-2.235-2.417-2.62-2.309-.186.053-.234.166.063.68-.238-.259-.348-.23-.474-.142-.65.457.567 2.523 1.05 3.343-.375-.628-.723-1.048-.938-.526-.247.597 1.614 3.44 2.176 4.522.612 1.18 3.843-2.885 3.843-2.885"/>
            <path fill="#F2C344" d="M340.604 313.43c-.93-.76-4.072-.879-6.435 1.5-1.666 1.678-3.168 3.492-3.799 4.253-1.187 1.433-3.754 5.302-4.593 5.18-.839-.122-6.891-2.201-7.337-2.274-.445-.074-6.832-2.58-6.832-2.58l-2.088 3.93s12.572 6.018 13.72 6.404c1.148.386 3.567 1.83 6.158-.301 2.463-2.027 7.183-5.719 8.49-6.835.484-.412 6.86-5.885 2.716-9.277"/>
            <path fill="#EEA886" d="M323.922 312.206s1.545 1.16 6.714-1.116c0 0-.508-2.788.507-6.099 1.013-3.31-6.673 3.424-6.673 3.424.084.059.1.39.052.85l-.01.092a8.98 8.98 0 0 1-.208 1.128l-.037.149c-.29 1.107-.345.606-.345 1.572"/>
            <path fill="#A77860" d="M324.304 310.485h.001c3.703.475 5.724-3.515 5.782-3.632-2.535 3.695-5.575 2.504-5.575 2.504a8.98 8.98 0 0 1-.208 1.128"/>
            <path fill="#EEA987" d="M331.58 304.246l-.002.004a17.354 17.354 0 0 1-1.973 3.258c-2.567 3.293-8.554 3.375-8.641-5.667-.017-1.713.196-3.102.54-4.228 1.226-4.013 4.105-4.681 4.105-4.681 2.127-.118 5.85.409 7.091 3.179.88 1.968.244 5.23-1.12 8.135"/>
            <path fill="#282625" d="M331.58 304.246l-.002.004s-.307.082-1.412-2.15c-.222-.448-.392-.128-.488-.325l-1.761-.687s1.667-2.378-.612-3.187c-2.323-.823-5.8-.288-5.8-.288-1.81-7.908 4.505-5.117 4.505-5.117 2.239.42 5.45.845 6.69 3.615.88 1.968.244 5.23-1.12 8.135"/>
            <path fill="#EEA987" d="M329.32 300.42c.13-.604 1.324-1.124 1.832.175.507 1.3-1.19 2.677-1.638 2.392-.447-.286-.411-1.565-.195-2.566"/>
        </g>
    </g>
</svg>
