<?xml version="1.0" encoding="UTF-8"?>
<svg width="32px" height="32px" viewBox="0 0 32 32" version="1.1" xmlns="http://www.w3.org/2000/svg" xmlns:xlink="http://www.w3.org/1999/xlink">
    <!-- Generator: Sketch 57.1 (83088) - https://sketch.com -->
    <title>icon_collision copy</title>
    <desc>Created with Sketch.</desc>
    <g id="Page-1" stroke="none" stroke-width="1" fill="none" fill-rule="evenodd">
        <g id="시안-2차(수정)-copy-5" transform="translate(-466.000000, -423.000000)" fill="#F88B43">
            <g id="Robot-information" transform="translate(120.000000, 292.000000)">
                <g id="rState" transform="translate(316.000000, 0.000000)">
                    <g id="item3" transform="translate(30.000000, 131.000000)">
                        <g id="icon_collision">
                            <path d="M17,3 L17,29 L15,29 L15,3 L17,3 Z M12.8680806,19.2412295 L11.5414584,27.2718007 L8.7223805,26.2457403 L12.8680806,19.2412295 Z M19.1319194,19.2412295 L23.2776195,26.2457403 L20.4585416,27.2718007 L19.1319194,19.2412295 Z M7.99993219,10.9999322 L12.9999322,15.9999322 L7.99993219,20.9999322 L7.99906781,17.9999322 L3.00006781,17.9999322 L3.00006781,13.9999322 L7.99906781,13.9999322 L7.99993219,10.9999322 Z M24.0000678,10.9999322 L24.0009322,13.9999322 L28.9999322,13.9999322 L28.9999322,17.9999322 L24.0009322,17.9999322 L24.0000678,20.9999322 L19.0000678,15.9999322 L24.0000678,10.9999322 Z M11.5414584,4.7281993 L12.8680806,12.7587705 L8.7223805,5.75425973 L11.5414584,4.7281993 Z M20.4585416,4.7281993 L23.2776195,5.75425973 L19.1319194,12.7587705 L20.4585416,4.7281993 Z" id="inactive"></path>
                        </g>
                    </g>
                </g>
            </g>
        </g>
    </g>
</svg>