<svg xmlns="http://www.w3.org/2000/svg" width="24" height="24" viewBox="0 0 24 24">
    <path fill="#333F52" fill-rule="evenodd" d="M4.86 20a.857.857 0 0 1-.86-.857V16.28c0-.453.337-.826.778-.881l.112-.007c.492 0 .89.393.89.888l-.001 2.004h12.42l.001-2.004c0-.453.337-.826.778-.881l.112-.007c.492 0 .89.393.89.888v2.68c.006.024.01.049.013.074l.007.108c0 .473-.38.857-.86.857H4.86zm8.396-15c.308 0 .563.218.61.496l.009.095v5.302H17l-5 4.714-5-4.714h3.125V5.59c0-.294.228-.537.52-.583l.1-.008h2.51z"/>
</svg>
