<svg xmlns="http://www.w3.org/2000/svg" width="58" height="52" viewBox="0 0 58 52">
    <g fill="none" fill-rule="evenodd">
        <path fill="#0072CE" d="M0 0h57.6v51.2H0z"/>
        <path fill="#FFF" d="M21.888 29.44a3.072 3.072 0 0 1 3.072 3.072v1.536a3.072 3.072 0 0 1-3.072 3.072H17.28v-4.608a3.072 3.072 0 0 1 3.072-3.072h1.536zm10.752-4.608a3.072 3.072 0 0 1 3.072-3.072h1.536a3.072 3.072 0 0 1 3.072 3.072V37.12h-7.68V24.832zM29.568 14.08a3.072 3.072 0 0 1 3.072 3.072v1.536a3.072 3.072 0 0 1-3.072 3.072H17.28v-7.68h12.288z"/>
    </g>
</svg>
